<?xml version="1.0" standalone="yes"?>

<svg version="1.1" viewBox="0.0 0.0 522.7611548556431 466.81627296587925" fill="none" stroke="none" stroke-linecap="square" stroke-miterlimit="10" xmlns="http://www.w3.org/2000/svg" xmlns:xlink="http://www.w3.org/1999/xlink"><clipPath id="p.0"><path d="m0 0l522.76117 0l0 466.81628l-522.76117 0l0 -466.81628z" clip-rule="nonzero"></path></clipPath><g clip-path="url(#p.0)"><path fill="#000000" fill-opacity="0.0" d="m0 0l522.76117 0l0 466.81628l-522.76117 0z" fill-rule="evenodd"></path><path fill="#000000" fill-opacity="0.0" d="m19.868767 218.08923l0 0c0 -89.08743 41.91602 -161.30708 93.62205 -161.30708l0 0c24.830109 0 48.64325 16.9948 66.20079 47.245747c17.557526 30.250954 27.42125 71.28004 27.42125 114.06133l0 0c0 89.08746 -41.916016 161.3071 -93.62204 161.3071l0 0c-51.706028 0 -93.62205 -72.219635 -93.62205 -161.3071z" fill-rule="evenodd"></path><path stroke="#efefef" stroke-width="2.0" stroke-linejoin="round" stroke-linecap="butt" stroke-dasharray="8.0,6.0" d="m19.868767 218.08923l0 0c0 -89.08743 41.91602 -161.30708 93.62205 -161.30708l0 0c24.830109 0 48.64325 16.9948 66.20079 47.245747c17.557526 30.250954 27.42125 71.28004 27.42125 114.06133l0 0c0 89.08746 -41.916016 161.3071 -93.62204 161.3071l0 0c-51.706028 0 -93.62205 -72.219635 -93.62205 -161.3071z" fill-rule="evenodd"></path><path fill="#000000" fill-opacity="0.0" d="m311.61417 218.08923l0 0c0 -89.08743 41.916016 -161.30708 93.62204 -161.30708l0 0c24.83014 0 48.64325 16.9948 66.200806 47.245747c17.557526 30.250954 27.421265 71.28004 27.421265 114.06133l0 0c0 89.08746 -41.916016 161.3071 -93.62207 161.3071l0 0c-51.706024 0 -93.62204 -72.219635 -93.62204 -161.3071z" fill-rule="evenodd"></path><path stroke="#efefef" stroke-width="2.0" stroke-linejoin="round" stroke-linecap="butt" stroke-dasharray="8.0,6.0" d="m311.61417 218.08923l0 0c0 -89.08743 41.916016 -161.30708 93.62204 -161.30708l0 0c24.83014 0 48.64325 16.9948 66.200806 47.245747c17.557526 30.250954 27.421265 71.28004 27.421265 114.06133l0 0c0 89.08746 -41.916016 161.3071 -93.62207 161.3071l0 0c-51.706024 0 -93.62204 -72.219635 -93.62204 -161.3071z" fill-rule="evenodd"></path><path fill="#efefef" d="m76.637794 118.950134l0 0c0 -7.9581223 6.253914 -14.409454 13.968506 -14.409454l0 0c3.7046738 0 7.257622 1.5181351 9.87722 4.220436c2.619606 2.7022934 4.0912857 6.3673935 4.0912857 10.189018l0 0c0 7.9581146 -6.253914 14.409439 -13.968506 14.409439l0 0c-7.714592 0 -13.968506 -6.4513245 -13.968506 -14.409439z" fill-rule="evenodd"></path><path stroke="#efefef" stroke-width="1.0" stroke-linejoin="round" stroke-linecap="butt" d="m76.637794 118.950134l0 0c0 -7.9581223 6.253914 -14.409454 13.968506 -14.409454l0 0c3.7046738 0 7.257622 1.5181351 9.87722 4.220436c2.619606 2.7022934 4.0912857 6.3673935 4.0912857 10.189018l0 0c0 7.9581146 -6.253914 14.409439 -13.968506 14.409439l0 0c-7.714592 0 -13.968506 -6.4513245 -13.968506 -14.409439z" fill-rule="evenodd"></path><path fill="#efefef" d="m99.52231 174.60104l0 0c0 -7.9581146 6.253914 -14.409439 13.968506 -14.409439l0 0c3.7046738 0 7.257622 1.5181274 9.87722 4.2204285c2.619606 2.702301 4.0912857 6.367386 4.0912857 10.189011l0 0c0 7.95813 -6.253914 14.409454 -13.968506 14.409454l0 0c-7.714592 0 -13.968506 -6.4513245 -13.968506 -14.409454z" fill-rule="evenodd"></path><path stroke="#efefef" stroke-width="1.0" stroke-linejoin="round" stroke-linecap="butt" d="m99.52231 174.60104l0 0c0 -7.9581146 6.253914 -14.409439 13.968506 -14.409439l0 0c3.7046738 0 7.257622 1.5181274 9.87722 4.2204285c2.619606 2.702301 4.0912857 6.367386 4.0912857 10.189011l0 0c0 7.95813 -6.253914 14.409454 -13.968506 14.409454l0 0c-7.714592 0 -13.968506 -6.4513245 -13.968506 -14.409454z" fill-rule="evenodd"></path><path fill="#efefef" d="m141.07611 237.45932l0 0c0 -7.9581146 6.2539215 -14.409454 13.968506 -14.409454l0 0c3.7046814 0 7.2576294 1.5181427 9.877228 4.2204285c2.6195984 2.702301 4.091278 6.367401 4.091278 10.189026l0 0c0 7.9581146 -6.2539062 14.409439 -13.968506 14.409439l0 0c-7.7145844 0 -13.968506 -6.4513245 -13.968506 -14.409439z" fill-rule="evenodd"></path><path stroke="#efefef" stroke-width="1.0" stroke-linejoin="round" stroke-linecap="butt" d="m141.07611 237.45932l0 0c0 -7.9581146 6.2539215 -14.409454 13.968506 -14.409454l0 0c3.7046814 0 7.2576294 1.5181427 9.877228 4.2204285c2.6195984 2.702301 4.091278 6.367401 4.091278 10.189026l0 0c0 7.9581146 -6.2539062 14.409439 -13.968506 14.409439l0 0c-7.7145844 0 -13.968506 -6.4513245 -13.968506 -14.409439z" fill-rule="evenodd"></path><path fill="#efefef" d="m87.80577 327.35434l0 0c0 -7.95813 6.253914 -14.409454 13.968506 -14.409454l0 0c3.7046814 0 7.257622 1.5181274 9.877228 4.2204285c2.6195984 2.702301 4.091278 6.367401 4.091278 10.189026l0 0c0 7.9580994 -6.253914 14.409454 -13.968506 14.409454l0 0c-7.714592 0 -13.968506 -6.451355 -13.968506 -14.409454z" fill-rule="evenodd"></path><path stroke="#efefef" stroke-width="1.0" stroke-linejoin="round" stroke-linecap="butt" d="m87.80577 327.35434l0 0c0 -7.95813 6.253914 -14.409454 13.968506 -14.409454l0 0c3.7046814 0 7.257622 1.5181274 9.877228 4.2204285c2.6195984 2.702301 4.091278 6.367401 4.091278 10.189026l0 0c0 7.9580994 -6.253914 14.409454 -13.968506 14.409454l0 0c-7.714592 0 -13.968506 -6.451355 -13.968506 -14.409454z" fill-rule="evenodd"></path><path fill="#efefef" d="m375.063 131.5853l0 0c0 -7.9581146 6.2539062 -14.409447 13.968506 -14.409447l0 0c3.7046814 0 7.2576294 1.5181351 9.877228 4.220436c2.6195984 2.7022934 4.091278 6.3673935 4.091278 10.189011l0 0c0 7.95813 -6.2539062 14.409454 -13.968506 14.409454l0 0c-7.7145996 0 -13.968506 -6.4513245 -13.968506 -14.409454z" fill-rule="evenodd"></path><path stroke="#efefef" stroke-width="1.0" stroke-linejoin="round" stroke-linecap="butt" d="m375.063 131.5853l0 0c0 -7.9581146 6.2539062 -14.409447 13.968506 -14.409447l0 0c3.7046814 0 7.2576294 1.5181351 9.877228 4.220436c2.6195984 2.7022934 4.091278 6.3673935 4.091278 10.189011l0 0c0 7.95813 -6.2539062 14.409454 -13.968506 14.409454l0 0c-7.7145996 0 -13.968506 -6.4513245 -13.968506 -14.409454z" fill-rule="evenodd"></path><path fill="#efefef" d="m338.66666 180.02625l0 0c0 -7.9581146 6.253937 -14.409454 13.968506 -14.409454l0 0c3.7046814 0 7.2576294 1.5181427 9.877228 4.2204437c2.6195984 2.7022858 4.091278 6.367386 4.091278 10.189011l0 0c0 7.9581146 -6.2539062 14.409454 -13.968506 14.409454l0 0c-7.714569 0 -13.968506 -6.4513397 -13.968506 -14.409454z" fill-rule="evenodd"></path><path stroke="#efefef" stroke-width="1.0" stroke-linejoin="round" stroke-linecap="butt" d="m338.66666 180.02625l0 0c0 -7.9581146 6.253937 -14.409454 13.968506 -14.409454l0 0c3.7046814 0 7.2576294 1.5181427 9.877228 4.2204437c2.6195984 2.7022858 4.091278 6.367386 4.091278 10.189011l0 0c0 7.9581146 -6.2539062 14.409454 -13.968506 14.409454l0 0c-7.714569 0 -13.968506 -6.4513397 -13.968506 -14.409454z" fill-rule="evenodd"></path><path fill="#efefef" d="m435.76642 192.42258l0 0c0 -7.95813 6.2539062 -14.409454 13.968475 -14.409454l0 0c3.7046814 0 7.2576294 1.5181274 9.877228 4.2204285c2.6195984 2.702301 4.091278 6.367401 4.091278 10.189026l0 0c0 7.9581146 -6.2539062 14.409439 -13.968506 14.409439l0 0c-7.714569 0 -13.968475 -6.4513245 -13.968475 -14.409439z" fill-rule="evenodd"></path><path stroke="#efefef" stroke-width="1.0" stroke-linejoin="round" stroke-linecap="butt" d="m435.76642 192.42258l0 0c0 -7.95813 6.2539062 -14.409454 13.968475 -14.409454l0 0c3.7046814 0 7.2576294 1.5181274 9.877228 4.2204285c2.6195984 2.702301 4.091278 6.367401 4.091278 10.189026l0 0c0 7.9581146 -6.2539062 14.409439 -13.968506 14.409439l0 0c-7.714569 0 -13.968475 -6.4513245 -13.968475 -14.409439z" fill-rule="evenodd"></path><path fill="#efefef" d="m366.60367 253.48032l0 0c0 -7.9581146 6.2539062 -14.409454 13.968506 -14.409454l0 0c3.7046814 0 7.2576294 1.5181427 9.877228 4.2204285c2.6195984 2.702301 4.091278 6.367401 4.091278 10.189026l0 0c0 7.95813 -6.2539062 14.409454 -13.968506 14.409454l0 0c-7.7145996 0 -13.968506 -6.4513245 -13.968506 -14.409454z" fill-rule="evenodd"></path><path stroke="#efefef" stroke-width="1.0" stroke-linejoin="round" stroke-linecap="butt" d="m366.60367 253.48032l0 0c0 -7.9581146 6.2539062 -14.409454 13.968506 -14.409454l0 0c3.7046814 0 7.2576294 1.5181427 9.877228 4.2204285c2.6195984 2.702301 4.091278 6.367401 4.091278 10.189026l0 0c0 7.95813 -6.2539062 14.409454 -13.968506 14.409454l0 0c-7.7145996 0 -13.968506 -6.4513245 -13.968506 -14.409454z" fill-rule="evenodd"></path><path fill="#000000" fill-opacity="0.0" d="m87.80577 392.90027l51.370087 0l0 70.299194l-51.370087 0z" fill-rule="evenodd"></path><path fill="#efefef" d="m124.291595 440.30026l-3.78125 0l-1.78125 -5.5625l-10.625 0l-1.796875 5.5625l-3.609375 0l8.46875 -25.53125l4.765625 0l8.359375 25.53125zm-6.5625 -8.671875l-4.3125 -13.65625l-4.3125 13.65625l8.625 0z" fill-rule="nonzero"></path><path fill="#000000" fill-opacity="0.0" d="m379.55118 392.90027l51.370087 0l0 70.299194l-51.370087 0z" fill-rule="evenodd"></path><path fill="#efefef" d="m414.08386 432.65964q0 1.84375 -0.71875 3.265625q-0.703125 1.40625 -2.03125 2.390625q-1.3125 0.96875 -3.1875 1.484375q-1.859375 0.5 -4.140625 0.5l-6.671875 0l0 -25.53125l7.296875 0q8.53125 0 8.53125 6.21875q0 2.0625 -0.984375 3.546875q-0.984375 1.484375 -3.203125 2.203125q1.03125 0.203125 1.953125 0.671875q0.9375 0.46875 1.640625 1.21875q0.703125 0.734375 1.109375 1.75q0.40625 1.015625 0.40625 2.28125zm-4.53125 -11.203125q0 -0.78125 -0.234375 -1.46875q-0.234375 -0.703125 -0.828125 -1.203125q-0.578125 -0.5 -1.578125 -0.78125q-0.984375 -0.296875 -2.515625 -0.296875l-3.59375 0l0 7.984375l3.484375 0q1.1875 0 2.15625 -0.25q0.96875 -0.265625 1.65625 -0.78125q0.6875 -0.53125 1.0625 -1.3125q0.390625 -0.796875 0.390625 -1.890625zm0.84375 11.328125q0 -0.984375 -0.421875 -1.765625q-0.40625 -0.78125 -1.1875 -1.3125q-0.78125 -0.546875 -1.90625 -0.828125q-1.109375 -0.296875 -2.515625 -0.296875l-3.5625 0l0 8.78125l3.671875 0q2.984375 0 4.453125 -1.109375q1.46875 -1.109375 1.46875 -3.46875z" fill-rule="nonzero"></path><path fill="#000000" fill-opacity="0.0" d="m104.57481 118.950134l86.2992 -31.055122" fill-rule="evenodd"></path><path stroke="#efefef" stroke-width="2.0" stroke-linejoin="round" stroke-linecap="butt" d="m104.57481 118.950134l75.00803 -26.991943" fill-rule="evenodd"></path><path fill="#efefef" stroke="#efefef" stroke-width="2.0" stroke-linecap="butt" d="m180.70139 95.06652l7.421524 -6.181511l-9.658615 -0.03515625z" fill-rule="evenodd"></path><path fill="#000000" fill-opacity="0.0" d="m127.45932 174.60104l211.21259 5.417328" fill-rule="evenodd"></path><path stroke="#efefef" stroke-width="2.0" stroke-linejoin="round" stroke-linecap="butt" d="m127.45932 174.60104l199.21652 5.1096497" fill-rule="evenodd"></path><path fill="#efefef" stroke="#efefef" stroke-width="2.0" stroke-linecap="butt" d="m326.59116 183.01306l9.157928 -3.0696564l-8.988525 -3.5350952z" fill-rule="evenodd"></path><path fill="#000000" fill-opacity="0.0" d="m169.01312 237.45932l197.6063 16.031494" fill-rule="evenodd"></path><path stroke="#efefef" stroke-width="2.0" stroke-linejoin="round" stroke-linecap="butt" d="m169.01312 237.45932l185.6456 15.061142" fill-rule="evenodd"></path><path fill="#efefef" stroke="#efefef" stroke-width="2.0" stroke-linecap="butt" d="m354.3916 255.81311l9.313599 -2.558731l-8.779358 -4.0265656z" fill-rule="evenodd"></path><path fill="#000000" fill-opacity="0.0" d="m115.74278 327.35434l113.51181 53.984253" fill-rule="evenodd"></path><path stroke="#efefef" stroke-width="2.0" stroke-linejoin="round" stroke-linecap="butt" d="m115.74278 327.35434l102.67493 48.830414" fill-rule="evenodd"></path><path fill="#efefef" stroke="#efefef" stroke-width="2.0" stroke-linecap="butt" d="m216.99892 379.16803l9.615265 0.91482544l-6.7776794 -6.881378z" fill-rule="evenodd"></path><path fill="#000000" fill-opacity="0.0" d="m242.13124 0l51.37007 0l0 70.29921l-51.37007 0z" fill-rule="evenodd"></path><path fill="#efefef" d="m277.35144 22.962498q-2.671875 -0.5625 -4.609375 -0.5625q-4.59375 0 -4.59375 4.796875l0 3.4375l8.59375 0l0 2.84375l-8.59375 0l0 13.921875l-3.453125 0l0 -13.921875l-6.3125 0l0 -2.84375l6.3125 0l0 -3.234375q0 -7.828125 8.15625 -7.828125q2.03125 0 4.5 0.46875l0 2.921875zm-20.53125 4.828125l0 0z" fill-rule="nonzero"></path><path fill="#000000" fill-opacity="0.0" d="m229.24803 358.25198l77.133865 0l0 46.141724l-77.133865 0z" fill-rule="evenodd"></path><path fill="#efefef" d="m243.29933 378.52634l1.8125 0l0.09375 1.890625q0.515625 -0.609375 0.984375 -1.0q0.484375 -0.40625 0.9375 -0.65625q0.46875 -0.25 0.953125 -0.34375q0.484375 -0.109375 1.0 -0.109375q1.8125 0 2.734375 1.078125q0.9375 1.078125 0.9375 3.234375l0 7.671875l-2.03125 0l0 -7.515625q0 -1.375 -0.515625 -2.03125q-0.515625 -0.671875 -1.53125 -0.671875q-0.375 0 -0.734375 0.109375q-0.359375 0.109375 -0.75 0.390625q-0.390625 0.265625 -0.84375 0.734375q-0.4375 0.46875 -1.0 1.171875l0 7.8125l-2.046875 0l0 -11.765625zm22.648453 11.765625l-1.828125 0l-0.0625 -1.90625q-0.53125 0.609375 -1.015625 1.015625q-0.46875 0.40625 -0.9375 0.65625q-0.46875 0.25 -0.9375 0.34375q-0.46875 0.109375 -1.0 0.109375q-1.8125 0 -2.75 -1.0625q-0.921875 -1.078125 -0.921875 -3.234375l0 -7.6875l2.046875 0l0 7.515625q0 2.71875 2.03125 2.71875q0.375 0 0.734375 -0.109375q0.359375 -0.125 0.75 -0.390625q0.390625 -0.28125 0.84375 -0.75q0.453125 -0.46875 1.015625 -1.1875l0 -7.796875l2.03125 0l0 11.765625zm7.7578125 -14.890625l-3.484375 0l0 -1.671875l5.546875 0l0 14.859375l3.5 0l0 1.703125l-9.4375 0l0 -1.703125l3.875 0l0 -13.1875zm13.1953125 0l-3.484375 0l0 -1.671875l5.546875 0l0 14.859375l3.5 0l0 1.703125l-9.4375 0l0 -1.703125l3.875 0l0 -13.1875z" fill-rule="nonzero"></path><path fill="#000000" fill-opacity="0.0" d="m190.86089 64.821526l139.02364 0l0 46.14173l-139.02364 0z" fill-rule="evenodd"></path><path fill="#efefef" d="m212.80629 90.36153q0 0.421875 -0.015625 0.71875q0 0.296875 -0.03125 0.546875l-8.265625 0q0 1.8125 1.0 2.78125q1.015625 0.96875 2.921875 0.96875q0.515625 0 1.03125 -0.046875q0.515625 -0.046875 0.984375 -0.109375q0.484375 -0.078125 0.921875 -0.15625q0.453125 -0.09375 0.828125 -0.203125l0 1.6875q-0.84375 0.234375 -1.890625 0.375q-1.046875 0.15625 -2.171875 0.15625q-1.515625 0 -2.609375 -0.40625q-1.078125 -0.421875 -1.78125 -1.203125q-0.6875 -0.78125 -1.03125 -1.90625q-0.328125 -1.140625 -0.328125 -2.5625q0 -1.25 0.359375 -2.34375q0.359375 -1.109375 1.03125 -1.953125q0.6875 -0.84375 1.6875 -1.328125q1.0 -0.5 2.265625 -0.5q1.234375 0 2.171875 0.390625q0.953125 0.390625 1.59375 1.109375q0.65625 0.703125 0.984375 1.71875q0.34375 1.0 0.34375 2.265625zm-2.125 -0.296875q0.046875 -0.78125 -0.140625 -1.4375q-0.1875 -0.65625 -0.59375 -1.125q-0.390625 -0.46875 -0.984375 -0.71875q-0.578125 -0.265625 -1.34375 -0.265625q-0.671875 0 -1.21875 0.265625q-0.546875 0.25 -0.953125 0.71875q-0.390625 0.46875 -0.640625 1.125q-0.25 0.65625 -0.3125 1.4375l6.1875 0zm15.9921875 6.796875l-2.703125 0l-3.1875 -4.484375l-3.140625 4.484375l-2.625 0l4.546875 -5.90625l-4.34375 -5.859375l2.609375 0l3.09375 4.515625l3.046875 -4.515625l2.515625 0l-4.421875 5.90625l4.609375 5.859375zm11.7265625 -0.4375q-0.796875 0.3125 -1.640625 0.453125q-0.828125 0.15625 -1.71875 0.15625q-2.796875 0 -4.296875 -1.515625q-1.5 -1.515625 -1.5 -4.421875q0 -1.390625 0.421875 -2.53125q0.4375 -1.140625 1.21875 -1.9375q0.796875 -0.8125 1.875 -1.25q1.09375 -0.453125 2.40625 -0.453125q0.921875 0 1.71875 0.140625q0.796875 0.125 1.515625 0.421875l0 1.9375q-0.765625 -0.390625 -1.5625 -0.578125q-0.78125 -0.1875 -1.625 -0.1875q-0.78125 0 -1.484375 0.3125q-0.6875 0.296875 -1.21875 0.859375q-0.53125 0.5625 -0.84375 1.375q-0.296875 0.796875 -0.296875 1.8125q0 2.140625 1.03125 3.203125q1.046875 1.0625 2.890625 1.0625q0.828125 0 1.609375 -0.1875q0.78125 -0.1875 1.5 -0.5625l0 1.890625zm13.9921875 -6.0625q0 0.421875 -0.015625 0.71875q0 0.296875 -0.03125 0.546875l-8.265625 0q0 1.8125 1.0 2.78125q1.015625 0.96875 2.921875 0.96875q0.515625 0 1.03125 -0.046875q0.515625 -0.046875 0.984375 -0.109375q0.484375 -0.078125 0.921875 -0.15625q0.453125 -0.09375 0.828125 -0.203125l0 1.6875q-0.84375 0.234375 -1.890625 0.375q-1.046875 0.15625 -2.171875 0.15625q-1.515625 0 -2.609375 -0.40625q-1.078125 -0.421875 -1.78125 -1.203125q-0.6875 -0.78125 -1.03125 -1.90625q-0.328125 -1.140625 -0.328125 -2.5625q0 -1.25 0.359375 -2.34375q0.359375 -1.109375 1.03125 -1.953125q0.6875 -0.84375 1.6875 -1.328125q1.0 -0.5 2.265625 -0.5q1.234375 0 2.171875 0.390625q0.953125 0.390625 1.59375 1.109375q0.65625 0.703125 0.984375 1.71875q0.34375 1.0 0.34375 2.265625zm-2.125 -0.296875q0.046875 -0.78125 -0.140625 -1.4375q-0.1875 -0.65625 -0.59375 -1.125q-0.390625 -0.46875 -0.984375 -0.71875q-0.578125 -0.265625 -1.34375 -0.265625q-0.671875 0 -1.21875 0.265625q-0.546875 0.25 -0.953125 0.71875q-0.390625 0.46875 -0.640625 1.125q-0.25 0.65625 -0.3125 1.4375l6.1875 0zm15.445328 0.703125q0 1.5625 -0.453125 2.734375q-0.4375 1.171875 -1.21875 1.953125q-0.765625 0.765625 -1.828125 1.15625q-1.046875 0.390625 -2.265625 0.390625q-0.5625 0 -1.125 -0.0625q-0.5625 -0.046875 -1.125 -0.203125l0 4.9375l-2.0468903 0l0 -16.578125l1.8125153 0l0.140625 1.96875q0.875 -1.203125 1.859375 -1.6875q1.0 -0.5 2.171875 -0.5q1.0 0 1.765625 0.421875q0.765625 0.421875 1.28125 1.203125q0.515625 0.765625 0.765625 1.84375q0.265625 1.078125 0.265625 2.421875zm-2.09375 0.09375q0 -0.921875 -0.140625 -1.6875q-0.125 -0.78125 -0.421875 -1.328125q-0.296875 -0.5625 -0.75 -0.875q-0.453125 -0.3125 -1.09375 -0.3125q-0.375 0 -0.78125 0.125q-0.390625 0.125 -0.828125 0.421875q-0.421875 0.28125 -0.90625 0.765625q-0.46875 0.46875 -1.0 1.171875l0 5.703125q0.5625 0.234375 1.171875 0.375q0.625 0.125 1.21875 0.125q1.65625 0 2.59375 -1.109375q0.9375 -1.125 0.9375 -3.375zm14.7109375 5.828125q-0.6875 0.1875 -1.4375 0.265625q-0.734375 0.078125 -1.5 0.078125q-2.203125 0 -3.296875 -1.0q-1.09375 -1.015625 -1.09375 -3.09375l0 -6.140625l-3.296875 0l0 -1.703125l3.296875 0l0 -3.234375l2.046875 -0.53125l0 3.765625l5.28125 0l0 1.703125l-5.28125 0l0 5.984375q0 1.265625 0.671875 1.890625q0.671875 0.625 1.984375 0.625q0.5625 0 1.21875 -0.078125q0.671875 -0.09375 1.40625 -0.28125l0 1.75zm7.7265625 -9.90625l-3.484375 0l0 -1.6875l5.546875 0l0 10.0625l3.5 0l0 1.703125l-9.4375 0l0 -1.703125l3.875 0l0 -8.375zm0.703125 -6.625q0.34375 0 0.640625 0.125q0.296875 0.125 0.5 0.34375q0.21875 0.21875 0.34375 0.515625q0.125 0.28125 0.125 0.625q0 0.328125 -0.125 0.625q-0.125 0.28125 -0.34375 0.515625q-0.203125 0.21875 -0.5 0.34375q-0.296875 0.125 -0.640625 0.125q-0.328125 0 -0.625 -0.125q-0.296875 -0.125 -0.515625 -0.34375q-0.21875 -0.234375 -0.34375 -0.515625q-0.109375 -0.296875 -0.109375 -0.625q0 -0.34375 0.109375 -0.625q0.125 -0.296875 0.34375 -0.515625q0.21875 -0.21875 0.515625 -0.34375q0.296875 -0.125 0.625 -0.125zm18.726562 10.71875q0 1.375 -0.390625 2.515625q-0.390625 1.140625 -1.125 1.96875q-0.71875 0.8125 -1.765625 1.265625q-1.03125 0.453125 -2.359375 0.453125q-1.265625 0 -2.265625 -0.390625q-1.0 -0.40625 -1.703125 -1.15625q-0.703125 -0.765625 -1.078125 -1.890625q-0.359375 -1.125 -0.359375 -2.59375q0 -1.375 0.390625 -2.5q0.390625 -1.140625 1.109375 -1.953125q0.734375 -0.8125 1.765625 -1.265625q1.046875 -0.453125 2.375 -0.453125q1.265625 0 2.265625 0.40625q1.0 0.390625 1.6875 1.140625q0.703125 0.75 1.078125 1.875q0.375 1.125 0.375 2.578125zm-2.09375 0.09375q0 -1.078125 -0.25 -1.890625q-0.234375 -0.828125 -0.6875 -1.359375q-0.4375 -0.546875 -1.078125 -0.828125q-0.625 -0.28125 -1.421875 -0.28125q-0.90625 0 -1.5625 0.359375q-0.640625 0.359375 -1.0625 0.96875q-0.421875 0.59375 -0.609375 1.390625q-0.1875 0.78125 -0.1875 1.640625q0 1.09375 0.234375 1.921875q0.234375 0.8125 0.671875 1.359375q0.453125 0.546875 1.078125 0.828125q0.640625 0.265625 1.4375 0.265625q0.921875 0 1.5625 -0.359375q0.65625 -0.359375 1.0625 -0.953125q0.421875 -0.59375 0.609375 -1.375q0.203125 -0.796875 0.203125 -1.6875zm5.0390625 -5.875l1.8125 0l0.09375 1.890625q0.515625 -0.609375 0.984375 -1.0q0.484375 -0.40625 0.9375 -0.65625q0.46875 -0.25 0.953125 -0.34375q0.484375 -0.109375 1.0 -0.109375q1.8125 0 2.734375 1.078125q0.9375 1.078125 0.9375 3.234375l0 7.671875l-2.03125 0l0 -7.515625q0 -1.375 -0.515625 -2.03125q-0.515625 -0.671875 -1.53125 -0.671875q-0.375 0 -0.734375 0.109375q-0.359375 0.109375 -0.75 0.390625q-0.390625 0.265625 -0.84375 0.734375q-0.4375 0.46875 -1.0 1.171875l0 7.8125l-2.046875 0l0 -11.765625z" fill-rule="nonzero"></path></g></svg>

