<?xml version="1.0" standalone="yes"?>

<svg version="1.1" viewBox="0.0 0.0 522.7611548556431 466.81627296587925" fill="none" stroke="none" stroke-linecap="square" stroke-miterlimit="10" xmlns="http://www.w3.org/2000/svg" xmlns:xlink="http://www.w3.org/1999/xlink"><clipPath id="p.0"><path d="m0 0l522.76117 0l0 466.81628l-522.76117 0l0 -466.81628z" clip-rule="nonzero"></path></clipPath><g clip-path="url(#p.0)"><path fill="#000000" fill-opacity="0.0" d="m0 0l522.76117 0l0 466.81628l-522.76117 0z" fill-rule="evenodd"></path><path fill="#000000" fill-opacity="0.0" d="m19.868767 218.08923l0 0c0 -89.08743 41.91602 -161.30708 93.62205 -161.30708l0 0c24.830109 0 48.64325 16.9948 66.20079 47.245747c17.557526 30.250954 27.42125 71.28004 27.42125 114.06133l0 0c0 89.08746 -41.916016 161.3071 -93.62204 161.3071l0 0c-51.706028 0 -93.62205 -72.219635 -93.62205 -161.3071z" fill-rule="evenodd"></path><path stroke="#efefef" stroke-width="2.0" stroke-linejoin="round" stroke-linecap="butt" stroke-dasharray="8.0,6.0" d="m19.868767 218.08923l0 0c0 -89.08743 41.91602 -161.30708 93.62205 -161.30708l0 0c24.830109 0 48.64325 16.9948 66.20079 47.245747c17.557526 30.250954 27.42125 71.28004 27.42125 114.06133l0 0c0 89.08746 -41.916016 161.3071 -93.62204 161.3071l0 0c-51.706028 0 -93.62205 -72.219635 -93.62205 -161.3071z" fill-rule="evenodd"></path><path fill="#000000" fill-opacity="0.0" d="m311.61417 218.08923l0 0c0 -89.08743 41.916016 -161.30708 93.62204 -161.30708l0 0c24.83014 0 48.64325 16.9948 66.200806 47.245747c17.557526 30.250954 27.421265 71.28004 27.421265 114.06133l0 0c0 89.08746 -41.916016 161.3071 -93.62207 161.3071l0 0c-51.706024 0 -93.62204 -72.219635 -93.62204 -161.3071z" fill-rule="evenodd"></path><path stroke="#efefef" stroke-width="2.0" stroke-linejoin="round" stroke-linecap="butt" stroke-dasharray="8.0,6.0" d="m311.61417 218.08923l0 0c0 -89.08743 41.916016 -161.30708 93.62204 -161.30708l0 0c24.83014 0 48.64325 16.9948 66.200806 47.245747c17.557526 30.250954 27.421265 71.28004 27.421265 114.06133l0 0c0 89.08746 -41.916016 161.3071 -93.62207 161.3071l0 0c-51.706024 0 -93.62204 -72.219635 -93.62204 -161.3071z" fill-rule="evenodd"></path><path fill="#efefef" d="m76.637794 118.950134l0 0c0 -7.9581223 6.253914 -14.409454 13.968506 -14.409454l0 0c3.7046738 0 7.257622 1.5181351 9.87722 4.220436c2.619606 2.7022934 4.0912857 6.3673935 4.0912857 10.189018l0 0c0 7.9581146 -6.253914 14.409439 -13.968506 14.409439l0 0c-7.714592 0 -13.968506 -6.4513245 -13.968506 -14.409439z" fill-rule="evenodd"></path><path stroke="#efefef" stroke-width="1.0" stroke-linejoin="round" stroke-linecap="butt" d="m76.637794 118.950134l0 0c0 -7.9581223 6.253914 -14.409454 13.968506 -14.409454l0 0c3.7046738 0 7.257622 1.5181351 9.87722 4.220436c2.619606 2.7022934 4.0912857 6.3673935 4.0912857 10.189018l0 0c0 7.9581146 -6.253914 14.409439 -13.968506 14.409439l0 0c-7.714592 0 -13.968506 -6.4513245 -13.968506 -14.409439z" fill-rule="evenodd"></path><path fill="#efefef" d="m99.52231 174.60104l0 0c0 -7.9581146 6.253914 -14.409439 13.968506 -14.409439l0 0c3.7046738 0 7.257622 1.5181274 9.87722 4.2204285c2.619606 2.702301 4.0912857 6.367386 4.0912857 10.189011l0 0c0 7.95813 -6.253914 14.409454 -13.968506 14.409454l0 0c-7.714592 0 -13.968506 -6.4513245 -13.968506 -14.409454z" fill-rule="evenodd"></path><path stroke="#efefef" stroke-width="1.0" stroke-linejoin="round" stroke-linecap="butt" d="m99.52231 174.60104l0 0c0 -7.9581146 6.253914 -14.409439 13.968506 -14.409439l0 0c3.7046738 0 7.257622 1.5181274 9.87722 4.2204285c2.619606 2.702301 4.0912857 6.367386 4.0912857 10.189011l0 0c0 7.95813 -6.253914 14.409454 -13.968506 14.409454l0 0c-7.714592 0 -13.968506 -6.4513245 -13.968506 -14.409454z" fill-rule="evenodd"></path><path fill="#efefef" d="m90.24672 282.29922l0 0c0 -7.95813 6.253914 -14.409454 13.968506 -14.409454l0 0c3.7046738 0 7.257622 1.5181274 9.87722 4.2204285c2.619606 2.702301 4.091278 6.367401 4.091278 10.189026l0 0c0 7.9580994 -6.2539062 14.409424 -13.968498 14.409424l0 0c-7.714592 0 -13.968506 -6.4513245 -13.968506 -14.409424z" fill-rule="evenodd"></path><path stroke="#efefef" stroke-width="1.0" stroke-linejoin="round" stroke-linecap="butt" d="m90.24672 282.29922l0 0c0 -7.95813 6.253914 -14.409454 13.968506 -14.409454l0 0c3.7046738 0 7.257622 1.5181274 9.87722 4.2204285c2.619606 2.702301 4.091278 6.367401 4.091278 10.189026l0 0c0 7.9580994 -6.2539062 14.409424 -13.968498 14.409424l0 0c-7.714592 0 -13.968506 -6.4513245 -13.968506 -14.409424z" fill-rule="evenodd"></path><path fill="#efefef" d="m375.063 131.5853l0 0c0 -7.9581146 6.2539062 -14.409447 13.968506 -14.409447l0 0c3.7046814 0 7.2576294 1.5181351 9.877228 4.220436c2.6195984 2.7022934 4.091278 6.3673935 4.091278 10.189011l0 0c0 7.95813 -6.2539062 14.409454 -13.968506 14.409454l0 0c-7.7145996 0 -13.968506 -6.4513245 -13.968506 -14.409454z" fill-rule="evenodd"></path><path stroke="#efefef" stroke-width="1.0" stroke-linejoin="round" stroke-linecap="butt" d="m375.063 131.5853l0 0c0 -7.9581146 6.2539062 -14.409447 13.968506 -14.409447l0 0c3.7046814 0 7.2576294 1.5181351 9.877228 4.220436c2.6195984 2.7022934 4.091278 6.3673935 4.091278 10.189011l0 0c0 7.95813 -6.2539062 14.409454 -13.968506 14.409454l0 0c-7.7145996 0 -13.968506 -6.4513245 -13.968506 -14.409454z" fill-rule="evenodd"></path><path fill="#efefef" d="m338.66666 180.02625l0 0c0 -7.9581146 6.253937 -14.409454 13.968506 -14.409454l0 0c3.7046814 0 7.2576294 1.5181427 9.877228 4.2204437c2.6195984 2.7022858 4.091278 6.367386 4.091278 10.189011l0 0c0 7.9581146 -6.2539062 14.409454 -13.968506 14.409454l0 0c-7.714569 0 -13.968506 -6.4513397 -13.968506 -14.409454z" fill-rule="evenodd"></path><path stroke="#efefef" stroke-width="1.0" stroke-linejoin="round" stroke-linecap="butt" d="m338.66666 180.02625l0 0c0 -7.9581146 6.253937 -14.409454 13.968506 -14.409454l0 0c3.7046814 0 7.2576294 1.5181427 9.877228 4.2204437c2.6195984 2.7022858 4.091278 6.367386 4.091278 10.189011l0 0c0 7.9581146 -6.2539062 14.409454 -13.968506 14.409454l0 0c-7.714569 0 -13.968506 -6.4513397 -13.968506 -14.409454z" fill-rule="evenodd"></path><path fill="#efefef" d="m435.76642 192.42258l0 0c0 -7.95813 6.2539062 -14.409454 13.968475 -14.409454l0 0c3.7046814 0 7.2576294 1.5181274 9.877228 4.2204285c2.6195984 2.702301 4.091278 6.367401 4.091278 10.189026l0 0c0 7.9581146 -6.2539062 14.409439 -13.968506 14.409439l0 0c-7.714569 0 -13.968475 -6.4513245 -13.968475 -14.409439z" fill-rule="evenodd"></path><path stroke="#efefef" stroke-width="1.0" stroke-linejoin="round" stroke-linecap="butt" d="m435.76642 192.42258l0 0c0 -7.95813 6.2539062 -14.409454 13.968475 -14.409454l0 0c3.7046814 0 7.2576294 1.5181274 9.877228 4.2204285c2.6195984 2.702301 4.091278 6.367401 4.091278 10.189026l0 0c0 7.9581146 -6.2539062 14.409439 -13.968506 14.409439l0 0c-7.714569 0 -13.968475 -6.4513245 -13.968475 -14.409439z" fill-rule="evenodd"></path><path fill="#efefef" d="m366.60367 253.48032l0 0c0 -7.9581146 6.2539062 -14.409454 13.968506 -14.409454l0 0c3.7046814 0 7.2576294 1.5181427 9.877228 4.2204285c2.6195984 2.702301 4.091278 6.367401 4.091278 10.189026l0 0c0 7.95813 -6.2539062 14.409454 -13.968506 14.409454l0 0c-7.7145996 0 -13.968506 -6.4513245 -13.968506 -14.409454z" fill-rule="evenodd"></path><path stroke="#efefef" stroke-width="1.0" stroke-linejoin="round" stroke-linecap="butt" d="m366.60367 253.48032l0 0c0 -7.9581146 6.2539062 -14.409454 13.968506 -14.409454l0 0c3.7046814 0 7.2576294 1.5181427 9.877228 4.2204285c2.6195984 2.702301 4.091278 6.367401 4.091278 10.189026l0 0c0 7.95813 -6.2539062 14.409454 -13.968506 14.409454l0 0c-7.7145996 0 -13.968506 -6.4513245 -13.968506 -14.409454z" fill-rule="evenodd"></path><path fill="#efefef" d="m385.7638 319.03937l0 0c0 -7.95813 6.2539062 -14.409454 13.968475 -14.409454l0 0c3.7046814 0 7.2576294 1.5181274 9.877228 4.2204285c2.6195984 2.702301 4.091278 6.367401 4.091278 10.189026l0 0c0 7.95813 -6.2539062 14.409454 -13.968506 14.409454l0 0c-7.714569 0 -13.968475 -6.4513245 -13.968475 -14.409454z" fill-rule="evenodd"></path><path stroke="#efefef" stroke-width="1.0" stroke-linejoin="round" stroke-linecap="butt" d="m385.7638 319.03937l0 0c0 -7.95813 6.2539062 -14.409454 13.968475 -14.409454l0 0c3.7046814 0 7.2576294 1.5181274 9.877228 4.2204285c2.6195984 2.702301 4.091278 6.367401 4.091278 10.189026l0 0c0 7.95813 -6.2539062 14.409454 -13.968506 14.409454l0 0c-7.714569 0 -13.968475 -6.4513245 -13.968475 -14.409454z" fill-rule="evenodd"></path><path fill="#000000" fill-opacity="0.0" d="m87.80577 392.90027l51.370087 0l0 70.299194l-51.370087 0z" fill-rule="evenodd"></path><path fill="#efefef" d="m124.291595 440.30026l-3.78125 0l-1.78125 -5.5625l-10.625 0l-1.796875 5.5625l-3.609375 0l8.46875 -25.53125l4.765625 0l8.359375 25.53125zm-6.5625 -8.671875l-4.3125 -13.65625l-4.3125 13.65625l8.625 0z" fill-rule="nonzero"></path><path fill="#000000" fill-opacity="0.0" d="m379.55118 392.90027l51.370087 0l0 70.299194l-51.370087 0z" fill-rule="evenodd"></path><path fill="#efefef" d="m414.08386 432.65964q0 1.84375 -0.71875 3.265625q-0.703125 1.40625 -2.03125 2.390625q-1.3125 0.96875 -3.1875 1.484375q-1.859375 0.5 -4.140625 0.5l-6.671875 0l0 -25.53125l7.296875 0q8.53125 0 8.53125 6.21875q0 2.0625 -0.984375 3.546875q-0.984375 1.484375 -3.203125 2.203125q1.03125 0.203125 1.953125 0.671875q0.9375 0.46875 1.640625 1.21875q0.703125 0.734375 1.109375 1.75q0.40625 1.015625 0.40625 2.28125zm-4.53125 -11.203125q0 -0.78125 -0.234375 -1.46875q-0.234375 -0.703125 -0.828125 -1.203125q-0.578125 -0.5 -1.578125 -0.78125q-0.984375 -0.296875 -2.515625 -0.296875l-3.59375 0l0 7.984375l3.484375 0q1.1875 0 2.15625 -0.25q0.96875 -0.265625 1.65625 -0.78125q0.6875 -0.53125 1.0625 -1.3125q0.390625 -0.796875 0.390625 -1.890625zm0.84375 11.328125q0 -0.984375 -0.421875 -1.765625q-0.40625 -0.78125 -1.1875 -1.3125q-0.78125 -0.546875 -1.90625 -0.828125q-1.109375 -0.296875 -2.515625 -0.296875l-3.5625 0l0 8.78125l3.671875 0q2.984375 0 4.453125 -1.109375q1.46875 -1.109375 1.46875 -3.46875z" fill-rule="nonzero"></path><path fill="#000000" fill-opacity="0.0" d="m104.57481 118.950134l270.4882 12.629913" fill-rule="evenodd"></path><path stroke="#efefef" stroke-width="2.0" stroke-linejoin="round" stroke-linecap="butt" d="m104.57481 118.950134l258.50122 12.070206" fill-rule="evenodd"></path><path fill="#efefef" stroke="#efefef" stroke-width="2.0" stroke-linecap="butt" d="m362.92197 134.32022l9.220398 -2.8765411l-8.912231 -3.7232056z" fill-rule="evenodd"></path><path fill="#000000" fill-opacity="0.0" d="m127.45932 174.60104l211.21259 5.417328" fill-rule="evenodd"></path><path stroke="#efefef" stroke-width="2.0" stroke-linejoin="round" stroke-linecap="butt" d="m127.45932 174.60104l199.21652 5.1096497" fill-rule="evenodd"></path><path fill="#efefef" stroke="#efefef" stroke-width="2.0" stroke-linecap="butt" d="m326.59116 183.01306l9.157928 -3.0696564l-8.988525 -3.5350952z" fill-rule="evenodd"></path><path fill="#000000" fill-opacity="0.0" d="m118.18372 282.29922l248.40945 -28.818909" fill-rule="evenodd"></path><path stroke="#efefef" stroke-width="2.0" stroke-linejoin="round" stroke-linecap="butt" d="m118.18372 282.29922l236.48938 -27.43602" fill-rule="evenodd"></path><path fill="#efefef" stroke="#efefef" stroke-width="2.0" stroke-linecap="butt" d="m355.05383 258.14465l8.63501 -4.3273926l-9.396423 -2.2355194z" fill-rule="evenodd"></path><path fill="#000000" fill-opacity="0.0" d="m118.18372 282.29922l267.59058 36.75589" fill-rule="evenodd"></path><path stroke="#efefef" stroke-width="2.0" stroke-linejoin="round" stroke-linecap="butt" d="m118.18372 282.29922l255.70218 35.122925" fill-rule="evenodd"></path><path fill="#efefef" stroke="#efefef" stroke-width="2.0" stroke-linecap="butt" d="m373.43637 320.6949l9.441315 -2.0376282l-8.542236 -4.507843z" fill-rule="evenodd"></path><path fill="#000000" fill-opacity="0.0" d="m242.13124 0l51.37007 0l0 70.29921l-51.37007 0z" fill-rule="evenodd"></path><path fill="#efefef" d="m277.35144 22.962498q-2.671875 -0.5625 -4.609375 -0.5625q-4.59375 0 -4.59375 4.796875l0 3.4375l8.59375 0l0 2.84375l-8.59375 0l0 13.921875l-3.453125 0l0 -13.921875l-6.3125 0l0 -2.84375l6.3125 0l0 -3.234375q0 -7.828125 8.15625 -7.828125q2.03125 0 4.5 0.46875l0 2.921875zm-20.53125 4.828125l0 0z" fill-rule="nonzero"></path></g></svg>

