<?xml version="1.0" standalone="yes"?>

<svg version="1.1" viewBox="0.0 0.0 799.7926509186352 433.8923884514436" fill="none" stroke="none" stroke-linecap="square" stroke-miterlimit="10" xmlns="http://www.w3.org/2000/svg" xmlns:xlink="http://www.w3.org/1999/xlink"><clipPath id="p.0"><path d="m0 0l799.79266 0l0 433.8924l-799.79266 0l0 -433.8924z" clip-rule="nonzero"></path></clipPath><g clip-path="url(#p.0)"><path fill="#000000" fill-opacity="0.0" d="m0 0l799.79266 0l0 433.8924l-799.79266 0z" fill-rule="evenodd"></path><path fill="#000000" fill-opacity="0.0" d="m4.7322836 7.8110237l448.8189 0l0 413.5433l-448.8189 0z" fill-rule="evenodd"></path><path stroke="#efefef" stroke-width="1.0" stroke-linejoin="round" stroke-linecap="butt" stroke-dasharray="1.0,3.0" d="m4.7322836 7.8110237l448.8189 0l0 413.5433l-448.8189 0z" fill-rule="evenodd"></path><path fill="#000000" fill-opacity="0.0" d="m14.188976 192.11316l0 0c0 -79.5377 37.431816 -144.01575 83.60629 -144.01575l0 0c22.173775 0 43.43936 15.173046 59.11859 42.18124c15.6792145 27.008186 24.487717 63.63916 24.487717 101.8345l0 0c0 79.53772 -37.431824 144.01575 -83.60631 144.01575l0 0c-46.17448 0 -83.60629 -64.47803 -83.60629 -144.01575z" fill-rule="evenodd"></path><path stroke="#efefef" stroke-width="2.0" stroke-linejoin="round" stroke-linecap="butt" stroke-dasharray="8.0,6.0" d="m14.188976 192.11316l0 0c0 -79.5377 37.431816 -144.01575 83.60629 -144.01575l0 0c22.173775 0 43.43936 15.173046 59.11859 42.18124c15.6792145 27.008186 24.487717 63.63916 24.487717 101.8345l0 0c0 79.53772 -37.431824 144.01575 -83.60631 144.01575l0 0c-46.17448 0 -83.60629 -64.47803 -83.60629 -144.01575z" fill-rule="evenodd"></path><path fill="#000000" fill-opacity="0.0" d="m274.7608 192.11316l0 0c0 -79.5377 37.431793 -144.01575 83.60629 -144.01575l0 0c22.173767 0 43.43936 15.173046 59.11856 42.18124c15.67923 27.008186 24.487732 63.63916 24.487732 101.8345l0 0c0 79.53772 -37.431824 144.01575 -83.60629 144.01575l0 0c-46.1745 0 -83.60629 -64.47803 -83.60629 -144.01575z" fill-rule="evenodd"></path><path stroke="#efefef" stroke-width="2.0" stroke-linejoin="round" stroke-linecap="butt" stroke-dasharray="8.0,6.0" d="m274.7608 192.11316l0 0c0 -79.5377 37.431793 -144.01575 83.60629 -144.01575l0 0c22.173767 0 43.43936 15.173046 59.11856 42.18124c15.67923 27.008186 24.487732 63.63916 24.487732 101.8345l0 0c0 79.53772 -37.431824 144.01575 -83.60629 144.01575l0 0c-46.1745 0 -83.60629 -64.47803 -83.60629 -144.01575z" fill-rule="evenodd"></path><path fill="#efefef" d="m85.331375 153.28886l0 0c0 -7.105774 5.5841064 -12.86615 12.472443 -12.86615l0 0c3.3078995 0 6.4803085 1.355545 8.819344 3.768402c2.3390427 2.4128723 3.653099 5.685425 3.653099 9.097748l0 0c0 7.105774 -5.5841064 12.866135 -12.472443 12.866135l0 0c-6.888336 0 -12.472443 -5.7603607 -12.472443 -12.866135z" fill-rule="evenodd"></path><path stroke="#efefef" stroke-width="1.0" stroke-linejoin="round" stroke-linecap="butt" d="m85.331375 153.28886l0 0c0 -7.105774 5.5841064 -12.86615 12.472443 -12.86615l0 0c3.3078995 0 6.4803085 1.355545 8.819344 3.768402c2.3390427 2.4128723 3.653099 5.685425 3.653099 9.097748l0 0c0 7.105774 -5.5841064 12.866135 -12.472443 12.866135l0 0c-6.888336 0 -12.472443 -5.7603607 -12.472443 -12.866135z" fill-rule="evenodd"></path><path fill="#efefef" d="m122.445076 209.40953l0 0c0 -7.105774 5.584099 -12.866135 12.472435 -12.866135l0 0c3.307907 0 6.480316 1.3555298 8.819351 3.768402c2.339035 2.4128723 3.6530914 5.685425 3.6530914 9.097733l0 0c0 7.105774 -5.5841064 12.86615 -12.472443 12.86615l0 0c-6.888336 0 -12.472435 -5.760376 -12.472435 -12.86615z" fill-rule="evenodd"></path><path stroke="#efefef" stroke-width="1.0" stroke-linejoin="round" stroke-linecap="butt" d="m122.445076 209.40953l0 0c0 -7.105774 5.584099 -12.866135 12.472435 -12.866135l0 0c3.307907 0 6.480316 1.3555298 8.819351 3.768402c2.339035 2.4128723 3.6530914 5.685425 3.6530914 9.097733l0 0c0 7.105774 -5.5841064 12.86615 -12.472443 12.86615l0 0c-6.888336 0 -12.472435 -5.760376 -12.472435 -12.86615z" fill-rule="evenodd"></path><path fill="#efefef" d="m74.866776 289.66898l0 0c0 -7.105774 5.5841064 -12.86615 12.472443 -12.86615l0 0c3.3078995 0 6.4803085 1.3555298 8.819344 3.768402c2.3390427 2.4128723 3.653099 5.685425 3.653099 9.097748l0 0c0 7.105774 -5.5841064 12.86615 -12.472443 12.86615l0 0c-6.888336 0 -12.472443 -5.760376 -12.472443 -12.86615z" fill-rule="evenodd"></path><path stroke="#efefef" stroke-width="1.0" stroke-linejoin="round" stroke-linecap="butt" d="m74.866776 289.66898l0 0c0 -7.105774 5.5841064 -12.86615 12.472443 -12.86615l0 0c3.3078995 0 6.4803085 1.3555298 8.819344 3.768402c2.3390427 2.4128723 3.653099 5.685425 3.653099 9.097748l0 0c0 7.105774 -5.5841064 12.86615 -12.472443 12.86615l0 0c-6.888336 0 -12.472443 -5.760376 -12.472443 -12.86615z" fill-rule="evenodd"></path><path fill="#efefef" d="m298.92267 158.13254l0 0c0 -7.105774 5.5841064 -12.866135 12.472443 -12.866135l0 0c3.3078918 0 6.480316 1.3555298 8.819336 3.768402c2.3390503 2.4128723 3.6531067 5.685425 3.6531067 9.097733l0 0c0 7.105774 -5.5841064 12.86615 -12.472443 12.86615l0 0c-6.888336 0 -12.472443 -5.760376 -12.472443 -12.86615z" fill-rule="evenodd"></path><path stroke="#efefef" stroke-width="1.0" stroke-linejoin="round" stroke-linecap="butt" d="m298.92267 158.13254l0 0c0 -7.105774 5.5841064 -12.866135 12.472443 -12.866135l0 0c3.3078918 0 6.480316 1.3555298 8.819336 3.768402c2.3390503 2.4128723 3.6531067 5.685425 3.6531067 9.097733l0 0c0 7.105774 -5.5841064 12.86615 -12.472443 12.86615l0 0c-6.888336 0 -12.472443 -5.760376 -12.472443 -12.86615z" fill-rule="evenodd"></path><path fill="#efefef" d="m384.50012 174.01904l0 0c0 -7.105774 5.5841064 -12.86615 12.472443 -12.86615l0 0c3.3078918 0 6.480316 1.355545 8.819336 3.7684174c2.3390503 2.4128723 3.6531067 5.685425 3.6531067 9.097733l0 0c0 7.105774 -5.5841064 12.866135 -12.472443 12.866135l0 0c-6.888336 0 -12.472443 -5.7603607 -12.472443 -12.866135z" fill-rule="evenodd"></path><path stroke="#efefef" stroke-width="1.0" stroke-linejoin="round" stroke-linecap="butt" d="m384.50012 174.01904l0 0c0 -7.105774 5.5841064 -12.86615 12.472443 -12.86615l0 0c3.3078918 0 6.480316 1.355545 8.819336 3.7684174c2.3390503 2.4128723 3.6531067 5.685425 3.6531067 9.097733l0 0c0 7.105774 -5.5841064 12.866135 -12.472443 12.866135l0 0c-6.888336 0 -12.472443 -5.7603607 -12.472443 -12.866135z" fill-rule="evenodd"></path><path fill="#efefef" d="m323.87454 223.71329l0 0c0 -7.105774 5.5841064 -12.866135 12.472443 -12.866135l0 0c3.3078918 0 6.480316 1.3555298 8.819366 3.768402c2.3390198 2.4128723 3.6530762 5.685425 3.6530762 9.097733l0 0c0 7.105774 -5.5841064 12.86615 -12.472443 12.86615l0 0c-6.888336 0 -12.472443 -5.760376 -12.472443 -12.86615z" fill-rule="evenodd"></path><path stroke="#efefef" stroke-width="1.0" stroke-linejoin="round" stroke-linecap="butt" d="m323.87454 223.71329l0 0c0 -7.105774 5.5841064 -12.866135 12.472443 -12.866135l0 0c3.3078918 0 6.480316 1.3555298 8.819366 3.768402c2.3390198 2.4128723 3.6530762 5.685425 3.6530762 9.097733l0 0c0 7.105774 -5.5841064 12.86615 -12.472443 12.86615l0 0c-6.888336 0 -12.472443 -5.760376 -12.472443 -12.86615z" fill-rule="evenodd"></path><path fill="#efefef" d="m340.98737 282.24527l0 0c0 -7.105774 5.5841064 -12.86615 12.472443 -12.86615l0 0c3.3078918 0 6.480316 1.3555298 8.819336 3.768402c2.3390503 2.4128723 3.6531067 5.685425 3.6531067 9.097748l0 0c0 7.105774 -5.5841064 12.86615 -12.472443 12.86615l0 0c-6.888336 0 -12.472443 -5.760376 -12.472443 -12.86615z" fill-rule="evenodd"></path><path stroke="#efefef" stroke-width="1.0" stroke-linejoin="round" stroke-linecap="butt" d="m340.98737 282.24527l0 0c0 -7.105774 5.5841064 -12.86615 12.472443 -12.86615l0 0c3.3078918 0 6.480316 1.3555298 8.819336 3.768402c2.3390503 2.4128723 3.6531067 5.685425 3.6531067 9.097748l0 0c0 7.105774 -5.5841064 12.86615 -12.472443 12.86615l0 0c-6.888336 0 -12.472443 -5.760376 -12.472443 -12.86615z" fill-rule="evenodd"></path><path fill="#000000" fill-opacity="0.0" d="m74.866776 348.18802l45.889763 0l0 62.771667l-45.889763 0z" fill-rule="evenodd"></path><path fill="#efefef" d="m108.61244 395.588l-3.78125 0l-1.78125 -5.5625l-10.625 0l-1.796875 5.5625l-3.609375 0l8.46875 -25.53125l4.765625 0l8.359375 25.53125zm-6.5625 -8.671875l-4.3125 -13.65625l-4.3125 13.65625l8.625 0z" fill-rule="nonzero"></path><path fill="#000000" fill-opacity="0.0" d="m284.73077 348.18802l139.21259 0l0 62.771667l-139.21259 0z" fill-rule="evenodd"></path><path fill="#efefef" d="m308.59097 372.99426l-5.875 0l0 -2.9375l15.28125 0l0 2.9375l-5.890625 0l0 19.625l5.890625 0l0 2.96875l-15.28125 0l0 -2.96875l5.875 0l0 -19.625zm33.679688 9.65625q0 3.4375 -0.8125 5.9375q-0.8125 2.5 -2.1875 4.140625q-1.375 1.625 -3.21875 2.421875q-1.84375 0.796875 -3.90625 0.796875q-2.453125 0 -4.28125 -0.890625q-1.828125 -0.890625 -3.03125 -2.5625q-1.203125 -1.6875 -1.796875 -4.09375q-0.578125 -2.421875 -0.578125 -5.453125q0 -3.390625 0.796875 -5.890625q0.8125 -2.5 2.1875 -4.125q1.375 -1.640625 3.203125 -2.421875q1.84375 -0.796875 3.890625 -0.796875q2.46875 0 4.296875 0.90625q1.828125 0.890625 3.03125 2.5625q1.21875 1.65625 1.8125 4.0625q0.59375 2.40625 0.59375 5.40625zm-3.609375 0.265625q0 -2.25 -0.34375 -4.109375q-0.34375 -1.875 -1.109375 -3.21875q-0.765625 -1.34375 -1.96875 -2.078125q-1.1875 -0.75 -2.890625 -0.75q-1.640625 0 -2.828125 0.796875q-1.171875 0.78125 -1.9375 2.140625q-0.765625 1.359375 -1.140625 3.1875q-0.359375 1.8125 -0.359375 3.875q0 2.265625 0.34375 4.125q0.359375 1.859375 1.109375 3.203125q0.75 1.34375 1.9375 2.09375q1.1875 0.734375 2.875 0.734375q1.640625 0 2.828125 -0.796875q1.1875 -0.796875 1.953125 -2.140625q0.78125 -1.359375 1.15625 -3.171875q0.375 -1.828125 0.375 -3.890625zm21.054688 20.6875l-9.640625 0l0 -36.296875l9.640625 0l0 2.734375l-6.390625 0l0 30.828125l6.390625 0l0 2.734375zm25.460938 -15.65625q0 1.84375 -0.71875 3.265625q-0.703125 1.40625 -2.03125 2.390625q-1.3125 0.96875 -3.1875 1.484375q-1.859375 0.5 -4.140625 0.5l-6.671875 0l0 -25.53125l7.296875 0q8.53125 0 8.53125 6.21875q0 2.0625 -0.984375 3.546875q-0.984375 1.484375 -3.203125 2.203125q1.03125 0.203125 1.953125 0.671875q0.9375 0.46875 1.640625 1.21875q0.703125 0.734375 1.109375 1.75q0.40625 1.015625 0.40625 2.28125zm-4.53125 -11.203125q0 -0.78125 -0.234375 -1.46875q-0.234375 -0.703125 -0.828125 -1.203125q-0.578125 -0.5 -1.578125 -0.78125q-0.984375 -0.296875 -2.515625 -0.296875l-3.59375 0l0 7.984375l3.484375 0q1.1875 0 2.15625 -0.25q0.96875 -0.265625 1.65625 -0.78125q0.6875 -0.53125 1.0625 -1.3125q0.390625 -0.796875 0.390625 -1.890625zm0.84375 11.328125q0 -0.984375 -0.421875 -1.765625q-0.40625 -0.78125 -1.1875 -1.3125q-0.78125 -0.546875 -1.90625 -0.828125q-1.109375 -0.296875 -2.515625 -0.296875l-3.5625 0l0 8.78125l3.671875 0q2.984375 0 4.453125 -1.109375q1.46875 -1.109375 1.46875 -3.46875zm21.085938 15.53125l-9.625 0l0 -2.734375l6.34375 0l0 -30.828125l-6.34375 0l0 -2.734375l9.625 0l0 36.296875z" fill-rule="nonzero"></path><path fill="#000000" fill-opacity="0.0" d="m147.38995 209.40953l176.47244 14.29921" fill-rule="evenodd"></path><path stroke="#efefef" stroke-width="2.0" stroke-linejoin="round" stroke-linecap="butt" d="m147.38995 209.40953l164.51163 13.330048" fill-rule="evenodd"></path><path fill="#efefef" stroke="#efefef" stroke-width="2.0" stroke-linecap="butt" d="m311.6348 226.03226l9.3133545 -2.5596466l-8.779755 -4.025696z" fill-rule="evenodd"></path><path fill="#000000" fill-opacity="0.0" d="m99.81166 289.66898l241.16536 -7.433075" fill-rule="evenodd"></path><path stroke="#efefef" stroke-width="2.0" stroke-linejoin="round" stroke-linecap="butt" d="m99.81166 289.66898l229.17107 -7.063385" fill-rule="evenodd"></path><path fill="#efefef" stroke="#efefef" stroke-width="2.0" stroke-linecap="butt" d="m329.08447 285.90747l8.970123 -3.5815125l-9.173645 -3.0222778z" fill-rule="evenodd"></path><path fill="#000000" fill-opacity="0.0" d="m212.70224 -2.5984251l45.88977 0l0 62.771656l-45.88977 0z" fill-rule="evenodd"></path><path fill="#efefef" d="m245.18228 20.364073q-2.671875 -0.5625 -4.609375 -0.5625q-4.59375 0 -4.59375 4.796875l0 3.4375l8.59375 0l0 2.84375l-8.59375 0l0 13.921873l-3.453125 0l0 -13.921873l-6.3125 0l0 -2.84375l6.3125 0l0 -3.234375q0 -7.828125 8.15625 -7.828125q2.03125 0 4.5 0.46875l0 2.921875zm-20.53125 4.828125l0 0z" fill-rule="nonzero"></path><path fill="#000000" fill-opacity="0.0" d="m110.27626 153.28886l188.66142 4.8503876" fill-rule="evenodd"></path><path stroke="#efefef" stroke-width="2.0" stroke-linejoin="round" stroke-linecap="butt" d="m110.27626 153.28886l176.66539 4.541977" fill-rule="evenodd"></path><path fill="#efefef" stroke="#efefef" stroke-width="2.0" stroke-linecap="butt" d="m286.85675 161.13321l9.158081 -3.069107l-8.988281 -3.5356445z" fill-rule="evenodd"></path><path fill="#000000" fill-opacity="0.0" d="m612.5465 192.11316l0 0c0 -79.5377 37.431824 -144.01575 83.60632 -144.01575l0 0c22.173767 0 43.439392 15.173046 59.11859 42.18124c15.679199 27.008186 24.487732 63.63916 24.487732 101.8345l0 0c0 79.53772 -37.431824 144.01575 -83.60632 144.01575l0 0c-46.1745 0 -83.60632 -64.47803 -83.60632 -144.01575z" fill-rule="evenodd"></path><path stroke="#efefef" stroke-width="2.0" stroke-linejoin="round" stroke-linecap="butt" stroke-dasharray="8.0,6.0" d="m612.5465 192.11316l0 0c0 -79.5377 37.431824 -144.01575 83.60632 -144.01575l0 0c22.173767 0 43.439392 15.173046 59.11859 42.18124c15.679199 27.008186 24.487732 63.63916 24.487732 101.8345l0 0c0 79.53772 -37.431824 144.01575 -83.60632 144.01575l0 0c-46.1745 0 -83.60632 -64.47803 -83.60632 -144.01575z" fill-rule="evenodd"></path><path fill="#000000" fill-opacity="0.0" d="m673.22437 348.18802l45.88971 0l0 62.771667l-45.88971 0z" fill-rule="evenodd"></path><path fill="#efefef" d="m705.01685 387.9474q0 1.84375 -0.71875 3.265625q-0.703125 1.40625 -2.03125 2.390625q-1.3125 0.96875 -3.1875 1.484375q-1.859375 0.5 -4.140625 0.5l-6.671875 0l0 -25.53125l7.296875 0q8.53125 0 8.53125 6.21875q0 2.0625 -0.984375 3.546875q-0.984375 1.484375 -3.203125 2.203125q1.03125 0.203125 1.953125 0.671875q0.9375 0.46875 1.640625 1.21875q0.703125 0.734375 1.109375 1.75q0.40625 1.015625 0.40625 2.28125zm-4.53125 -11.203125q0 -0.78125 -0.234375 -1.46875q-0.234375 -0.703125 -0.828125 -1.203125q-0.578125 -0.5 -1.578125 -0.78125q-0.984375 -0.296875 -2.515625 -0.296875l-3.59375 0l0 7.984375l3.484375 0q1.1875 0 2.15625 -0.25q0.96875 -0.265625 1.65625 -0.78125q0.6875 -0.53125 1.0625 -1.3125q0.390625 -0.796875 0.390625 -1.890625zm0.84375 11.328125q0 -0.984375 -0.421875 -1.765625q-0.40625 -0.78125 -1.1875 -1.3125q-0.78125 -0.546875 -1.90625 -0.828125q-1.109375 -0.296875 -2.515625 -0.296875l-3.5625 0l0 8.78125l3.671875 0q2.984375 0 4.453125 -1.109375q1.46875 -1.109375 1.46875 -3.46875z" fill-rule="nonzero"></path><path fill="#efefef" d="m669.6891 209.41013l0 0c0 -7.105774 5.5841064 -12.86615 12.472473 -12.86615l0 0c3.3078613 0 6.4802856 1.3555298 8.819336 3.768402c2.3390503 2.4128723 3.6530762 5.685425 3.6530762 9.097748l0 0c0 7.1057587 -5.5841064 12.866135 -12.472412 12.866135l0 0c-6.8883667 0 -12.472473 -5.760376 -12.472473 -12.866135z" fill-rule="evenodd"></path><path stroke="#efefef" stroke-width="1.0" stroke-linejoin="round" stroke-linecap="butt" d="m669.6891 209.41013l0 0c0 -7.105774 5.5841064 -12.86615 12.472473 -12.86615l0 0c3.3078613 0 6.4802856 1.3555298 8.819336 3.768402c2.3390503 2.4128723 3.6530762 5.685425 3.6530762 9.097748l0 0c0 7.1057587 -5.5841064 12.866135 -12.472412 12.866135l0 0c-6.8883667 0 -12.472473 -5.760376 -12.472473 -12.866135z" fill-rule="evenodd"></path><path fill="#efefef" d="m690.3925 162.28151l0 0c0 -7.105774 5.5841064 -12.866135 12.472412 -12.866135l0 0c3.3079224 0 6.4803467 1.3555298 8.819397 3.768402c2.3389893 2.4128723 3.6530762 5.685425 3.6530762 9.097733l0 0c0 7.105774 -5.5841064 12.866135 -12.472473 12.866135l0 0c-6.8883057 0 -12.472412 -5.7603607 -12.472412 -12.866135z" fill-rule="evenodd"></path><path stroke="#efefef" stroke-width="1.0" stroke-linejoin="round" stroke-linecap="butt" d="m690.3925 162.28151l0 0c0 -7.105774 5.5841064 -12.866135 12.472412 -12.866135l0 0c3.3079224 0 6.4803467 1.3555298 8.819397 3.768402c2.3389893 2.4128723 3.6530762 5.685425 3.6530762 9.097733l0 0c0 7.105774 -5.5841064 12.866135 -12.472473 12.866135l0 0c-6.8883057 0 -12.472412 -5.7603607 -12.472412 -12.866135z" fill-rule="evenodd"></path><path fill="#000000" fill-opacity="0.0" d="m458.29398 7.8110237l216.56693 0l0 49.165356l-216.56693 0z" fill-rule="evenodd"></path><path fill="#efefef" d="m492.13602 39.851025l-1.828125 0l-0.0625 -1.90625q-0.53125 0.609375 -1.015625 1.015625q-0.46875 0.40625 -0.9375 0.65625q-0.46875 0.25 -0.9375 0.34375q-0.46875 0.109375 -1.0 0.109375q-1.8125 0 -2.75 -1.0625q-0.921875 -1.078125 -0.921875 -3.234375l0 -7.6875l2.046875 0l0 7.515625q0 2.71875 2.03125 2.71875q0.375 0 0.734375 -0.109375q0.359375 -0.125 0.75 -0.390625q0.390625 -0.28125 0.84375 -0.75q0.453125 -0.46875 1.015625 -1.1875l0 -7.796875l2.03125 0l0 11.765625zm3.7421875 -11.765625l1.8125 0l0.09375 1.890625q0.515625 -0.609375 0.984375 -1.0q0.484375 -0.40625 0.9375 -0.65625q0.46875 -0.25 0.953125 -0.34375q0.484375 -0.109375 1.0 -0.109375q1.8125 0 2.734375 1.078125q0.9375 1.078125 0.9375 3.234375l0 7.671875l-2.03125 0l0 -7.515625q0 -1.375 -0.515625 -2.03125q-0.515625 -0.671875 -1.53125 -0.671875q-0.375 0 -0.734375 0.109375q-0.359375 0.109375 -0.75 0.390625q-0.390625 0.265625 -0.84375 0.734375q-0.4375 0.46875 -1.0 1.171875l0 7.8125l-2.046875 0l0 -11.765625zm22.507843 8.546875q0 0.625 -0.21875 1.125q-0.203125 0.484375 -0.5625 0.875q-0.359375 0.375 -0.84375 0.640625q-0.484375 0.265625 -1.03125 0.453125q-0.53125 0.171875 -1.109375 0.25q-0.578125 0.09375 -1.125 0.09375q-1.203125 0 -2.2031555 -0.109375q-1.0 -0.109375 -1.953125 -0.34375l0 -1.875q1.03125 0.296875 2.046875 0.453125q1.0156555 0.140625 2.0312805 0.140625q1.453125 0 2.15625 -0.390625q0.703125 -0.40625 0.703125 -1.140625q0 -0.3125 -0.109375 -0.5625q-0.109375 -0.265625 -0.40625 -0.484375q-0.28125 -0.234375 -0.90625 -0.46875q-0.609375 -0.25 -1.671875 -0.578125q-0.796875 -0.234375 -1.4844055 -0.53125q-0.671875 -0.296875 -1.171875 -0.703125q-0.484375 -0.40625 -0.765625 -0.953125q-0.28125 -0.5625 -0.28125 -1.3125q0 -0.484375 0.234375 -1.0625q0.234375 -0.59375 0.78125 -1.09375q0.546875 -0.515625 1.484375 -0.84375q0.9375305 -0.34375 2.3437805 -0.34375q0.6875 0 1.53125 0.078125q0.84375 0.078125 1.765625 0.265625l0 1.8125q-0.96875 -0.234375 -1.828125 -0.34375q-0.859375 -0.109375 -1.484375 -0.109375q-0.765625 0 -1.296875 0.125q-0.515625 0.109375 -0.84375 0.3125q-0.31253052 0.203125 -0.45315552 0.484375q-0.140625 0.28125 -0.140625 0.59375q0 0.3125 0.125 0.578125q0.125 0.25 0.45315552 0.5q0.328125 0.234375 0.921875 0.484375q0.609375 0.234375 1.5625 0.515625q1.046875 0.296875 1.765625 0.640625q0.71875 0.328125 1.15625 0.734375q0.453125 0.40625 0.640625 0.921875q0.1875 0.515625 0.1875 1.171875zm11.4453125 3.21875l-0.046875 -1.578125q-0.96875 0.9375 -1.953125 1.375q-0.984375 0.421875 -2.078125 0.421875q-1.015625 0 -1.734375 -0.265625q-0.703125 -0.265625 -1.171875 -0.703125q-0.453125 -0.453125 -0.671875 -1.0625q-0.21875 -0.609375 -0.21875 -1.328125q0 -1.765625 1.3125 -2.765625q1.328125 -1.015625 3.90625 -1.015625l2.4375 0l0 -1.03125q0 -1.03125 -0.671875 -1.65625q-0.671875 -0.640625 -2.046875 -0.640625q-0.984375 0 -1.953125 0.234375q-0.96875 0.21875 -2.0 0.625l0 -1.84375q0.390625 -0.140625 0.859375 -0.265625q0.46875 -0.140625 1.0 -0.234375q0.53125 -0.109375 1.09375 -0.171875q0.578125 -0.078125 1.171875 -0.078125q1.0625 0 1.921875 0.234375q0.859375 0.234375 1.4375 0.71875q0.59375 0.484375 0.90625 1.21875q0.328125 0.71875 0.328125 1.703125l0 8.109375l-1.828125 0zm-0.21875 -5.359375l-2.59375 0q-0.765625 0 -1.3125 0.15625q-0.546875 0.15625 -0.90625 0.4375q-0.34375 0.28125 -0.515625 0.671875q-0.171875 0.390625 -0.171875 0.875q0 0.34375 0.09375 0.65625q0.109375 0.3125 0.34375 0.5625q0.234375 0.234375 0.609375 0.375q0.375 0.140625 0.921875 0.140625q0.703125 0 1.609375 -0.421875q0.90625 -0.4375 1.921875 -1.359375l0 -2.09375zm16.289062 -9.296875q-1.59375 -0.34375 -2.765625 -0.34375q-2.75 0 -2.75 2.875l0 2.0625l5.15625 0l0 1.703125l-5.15625 0l0 8.359375l-2.078125 0l0 -8.359375l-3.78125 0l0 -1.703125l3.78125 0l0 -1.9375q0 -4.703125 4.90625 -4.703125q1.21875 0 2.6875 0.28125l0 1.765625zm-12.3125 2.890625l0 0zm25.007812 5.265625q0 0.421875 -0.015625 0.71875q0 0.296875 -0.03125 0.546875l-8.265625 0q0 1.8125 1.0 2.78125q1.015625 0.96875 2.921875 0.96875q0.515625 0 1.03125 -0.046875q0.515625 -0.046875 0.984375 -0.109375q0.484375 -0.078125 0.921875 -0.15625q0.453125 -0.09375 0.828125 -0.203125l0 1.6875q-0.84375 0.234375 -1.890625 0.375q-1.046875 0.15625 -2.171875 0.15625q-1.515625 0 -2.609375 -0.40625q-1.078125 -0.421875 -1.78125 -1.203125q-0.6875 -0.78125 -1.03125 -1.90625q-0.328125 -1.140625 -0.328125 -2.5625q0 -1.25 0.359375 -2.34375q0.359375 -1.109375 1.03125 -1.953125q0.6875 -0.84375 1.6875 -1.328125q1.0 -0.5 2.265625 -0.5q1.234375 0 2.171875 0.390625q0.953125 0.390625 1.59375 1.109375q0.65625 0.703125 0.984375 1.71875q0.34375 1.0 0.34375 2.265625zm-2.125 -0.296875q0.046875 -0.78125 -0.140625 -1.4375q-0.1875 -0.65625 -0.59375 -1.125q-0.390625 -0.46875 -0.984375 -0.71875q-0.578125 -0.265625 -1.34375 -0.265625q-0.671875 0 -1.21875 0.265625q-0.546875 0.25 -0.953125 0.71875q-0.390625 0.46875 -0.640625 1.125q-0.25 0.65625 -0.3125 1.4375l6.1875 0zm15.8203125 6.796875l-2.34375 0l-2.296875 -4.90625q-0.25 -0.5625 -0.53125 -0.921875q-0.265625 -0.375 -0.578125 -0.59375q-0.296875 -0.21875 -0.671875 -0.3125q-0.375 -0.09375 -0.828125 -0.09375l-0.984375 0l0 6.828125l-2.078125 0l0 -15.3125l4.09375 0q1.34375 0 2.296875 0.296875q0.96875 0.28125 1.578125 0.8125q0.609375 0.53125 0.890625 1.28125q0.296875 0.734375 0.296875 1.640625q0 0.703125 -0.21875 1.34375q-0.203125 0.640625 -0.625 1.171875q-0.40625 0.515625 -1.03125 0.90625q-0.609375 0.375 -1.40625 0.5625q0.640625 0.21875 1.09375 0.78125q0.453125 0.546875 0.921875 1.46875l2.421875 5.046875zm-3.328125 -11.109375q0 -1.234375 -0.78125 -1.84375q-0.765625 -0.609375 -2.15625 -0.609375l-1.96875 0l0 5.0625l1.6875 0q0.734375 0 1.328125 -0.171875q0.59375 -0.171875 1.0 -0.5q0.421875 -0.328125 0.65625 -0.8125q0.234375 -0.5 0.234375 -1.125zm15.5390625 11.109375l-1.828125 0l-0.0625 -1.90625q-0.53125 0.609375 -1.015625 1.015625q-0.46875 0.40625 -0.9375 0.65625q-0.46875 0.25 -0.9375 0.34375q-0.46875 0.109375 -1.0 0.109375q-1.8125 0 -2.75 -1.0625q-0.921875 -1.078125 -0.921875 -3.234375l0 -7.6875l2.046875 0l0 7.515625q0 2.71875 2.03125 2.71875q0.375 0 0.734375 -0.109375q0.359375 -0.125 0.75 -0.390625q0.390625 -0.28125 0.84375 -0.75q0.453125 -0.46875 1.015625 -1.1875l0 -7.796875l2.03125 0l0 11.765625zm3.7421875 -11.765625l1.8125 0l0.09375 1.890625q0.515625 -0.609375 0.984375 -1.0q0.484375 -0.40625 0.9375 -0.65625q0.46875 -0.25 0.953125 -0.34375q0.484375 -0.109375 1.0 -0.109375q1.8125 0 2.734375 1.078125q0.9375 1.078125 0.9375 3.234375l0 7.671875l-2.03125 0l0 -7.515625q0 -1.375 -0.515625 -2.03125q-0.515625 -0.671875 -1.53125 -0.671875q-0.375 0 -0.734375 0.109375q-0.359375 0.109375 -0.75 0.390625q-0.390625 0.265625 -0.84375 0.734375q-0.4375 0.46875 -1.0 1.171875l0 7.8125l-2.046875 0l0 -11.765625zm23.007812 7.609375q0 1.09375 -0.453125 1.921875q-0.4375 0.8125 -1.234375 1.359375q-0.796875 0.546875 -1.921875 0.828125q-1.109375 0.265625 -2.46875 0.265625q-0.609375 0 -1.21875 -0.046875q-0.59375 -0.046875 -1.15625 -0.125q-0.546875 -0.078125 -1.046875 -0.171875q-0.484375 -0.09375 -0.890625 -0.1875l0 -2.015625q0.890625 0.328125 1.984375 0.515625q1.09375 0.1875 2.484375 0.1875q1.015625 0 1.71875 -0.15625q0.703125 -0.171875 1.15625 -0.46875q0.453125 -0.3125 0.65625 -0.75q0.203125 -0.453125 0.203125 -1.03125q0 -0.625 -0.34375 -1.0625q-0.34375 -0.4375 -0.90625 -0.78125q-0.5625 -0.34375 -1.28125 -0.625q-0.71875 -0.296875 -1.46875 -0.59375q-0.75 -0.3125 -1.46875 -0.671875q-0.71875 -0.359375 -1.28125 -0.84375q-0.5625 -0.484375 -0.921875 -1.140625q-0.34375 -0.65625 -0.34375 -1.5625q0 -0.78125 0.328125 -1.546875q0.328125 -0.765625 1.015625 -1.34375q0.703125 -0.59375 1.78125 -0.953125q1.09375 -0.375 2.59375 -0.375q0.375 0 0.828125 0.046875q0.453125 0.03125 0.90625 0.09375q0.46875 0.0625 0.921875 0.140625q0.453125 0.078125 0.84375 0.171875l0 1.875q-0.90625 -0.25 -1.8125 -0.375q-0.890625 -0.140625 -1.734375 -0.140625q-1.796875 0 -2.640625 0.59375q-0.84375 0.59375 -0.84375 1.609375q0 0.609375 0.34375 1.0625q0.34375 0.4375 0.90625 0.796875q0.5625 0.34375 1.28125 0.640625q0.71875 0.28125 1.46875 0.59375q0.75 0.296875 1.46875 0.671875q0.734375 0.359375 1.296875 0.859375q0.5625 0.484375 0.90625 1.15625q0.34375 0.671875 0.34375 1.578125zm13.8515625 -7.609375l-4.015625 10.515625q-0.609375 1.609375 -1.28125 2.765625q-0.65625 1.171875 -1.453125 1.90625q-0.78125 0.75 -1.71875 1.09375q-0.9375 0.359375 -2.09375 0.359375q-0.296875 0 -0.546875 -0.015625q-0.25 0 -0.546875 -0.03125l0 -1.84375q0.265625 0.03125 0.5625 0.0625q0.3125 0.03125 0.65625 0.03125q0.5625 0 1.046875 -0.171875q0.484375 -0.15625 0.90625 -0.53125q0.4375 -0.375 0.828125 -0.96875q0.40625 -0.578125 0.78125 -1.40625l-4.6875 -11.765625l2.3125 0l2.984375 7.78125l0.59375 1.828125l0.671875 -1.875l2.765625 -7.734375l2.234375 0zm2.7265625 0l1.8125 0l0.09375 1.890625q0.515625 -0.609375 0.984375 -1.0q0.484375 -0.40625 0.9375 -0.65625q0.46875 -0.25 0.953125 -0.34375q0.484375 -0.109375 1.0 -0.109375q1.8125 0 2.734375 1.078125q0.9375 1.078125 0.9375 3.234375l0 7.671875l-2.03125 0l0 -7.515625q0 -1.375 -0.515625 -2.03125q-0.515625 -0.671875 -1.53125 -0.671875q-0.375 0 -0.734375 0.109375q-0.359375 0.109375 -0.75 0.390625q-0.390625 0.265625 -0.84375 0.734375q-0.4375 0.46875 -1.0 1.171875l0 7.8125l-2.046875 0l0 -11.765625zm22.335938 11.328125q-0.796875 0.3125 -1.640625 0.453125q-0.828125 0.15625 -1.71875 0.15625q-2.796875 0 -4.296875 -1.515625q-1.5 -1.515625 -1.5 -4.421875q0 -1.390625 0.421875 -2.53125q0.4375 -1.140625 1.21875 -1.9375q0.796875 -0.8125 1.875 -1.25q1.09375 -0.453125 2.40625 -0.453125q0.921875 0 1.71875 0.140625q0.796875 0.125 1.515625 0.421875l0 1.9375q-0.765625 -0.390625 -1.5625 -0.578125q-0.78125 -0.1875 -1.625 -0.1875q-0.78125 0 -1.484375 0.3125q-0.6875 0.296875 -1.21875 0.859375q-0.53125 0.5625 -0.84375 1.375q-0.296875 0.796875 -0.296875 1.8125q0 2.140625 1.03125 3.203125q1.046875 1.0625 2.890625 1.0625q0.828125 0 1.609375 -0.1875q0.78125 -0.1875 1.5 -0.5625l0 1.890625z" fill-rule="nonzero"></path><path fill="#efefef" d="m652.4739 123.66602l0 0c0 -7.105774 5.5841064 -12.866142 12.472412 -12.866142l0 0c3.3079224 0 6.4803467 1.3555374 8.819397 3.7684097c2.3389893 2.4128647 3.6530762 5.685417 3.6530762 9.097733l0 0c0 7.1057816 -5.5841064 12.866142 -12.472473 12.866142l0 0c-6.8883057 0 -12.472412 -5.7603607 -12.472412 -12.866142z" fill-rule="evenodd"></path><path stroke="#efefef" stroke-width="1.0" stroke-linejoin="round" stroke-linecap="butt" d="m652.4739 123.66602l0 0c0 -7.105774 5.5841064 -12.866142 12.472412 -12.866142l0 0c3.3079224 0 6.4803467 1.3555374 8.819397 3.7684097c2.3389893 2.4128647 3.6530762 5.685417 3.6530762 9.097733l0 0c0 7.1057816 -5.5841064 12.866142 -12.472473 12.866142l0 0c-6.8883057 0 -12.472412 -5.7603607 -12.472412 -12.866142z" fill-rule="evenodd"></path><path fill="#efefef" d="m677.41876 271.68832l0 0c0 -7.105774 5.5841064 -12.866119 12.472412 -12.866119l0 0c3.3079224 0 6.4803467 1.3555298 8.819397 3.768402c2.3389893 2.4128723 3.6530762 5.685425 3.6530762 9.097717l0 0c0 7.105774 -5.5841064 12.86615 -12.472473 12.86615l0 0c-6.8883057 0 -12.472412 -5.760376 -12.472412 -12.86615z" fill-rule="evenodd"></path><path stroke="#efefef" stroke-width="1.0" stroke-linejoin="round" stroke-linecap="butt" d="m677.41876 271.68832l0 0c0 -7.105774 5.5841064 -12.866119 12.472412 -12.866119l0 0c3.3079224 0 6.4803467 1.3555298 8.819397 3.768402c2.3389893 2.4128723 3.6530762 5.685425 3.6530762 9.097717l0 0c0 7.105774 -5.5841064 12.86615 -12.472473 12.86615l0 0c-6.8883057 0 -12.472412 -5.760376 -12.472412 -12.86615z" fill-rule="evenodd"></path><path fill="#000000" fill-opacity="0.0" d="m348.81943 223.71329l320.88187 -14.29921" fill-rule="evenodd"></path><path stroke="#efefef" stroke-width="2.0" stroke-linejoin="round" stroke-linecap="butt" stroke-dasharray="8.0,6.0" d="m348.81943 223.7133l308.89377 -13.764999" fill-rule="evenodd"></path><path fill="#efefef" stroke="#efefef" stroke-width="2.0" stroke-linecap="butt" d="m657.8603 213.24849l8.920105 -3.704239l-9.214233 -2.8961334z" fill-rule="evenodd"></path><path fill="#000000" fill-opacity="0.0" d="m552.65656 127.65095l23.924316 -17.481552l-6.7631836 27.861198l23.297974 -8.846054l-12.8029175 14.576263l31.332642 6.321472l-30.256653 8.334274l6.0491943 10.621735l-12.293518 2.881546l12.06488 18.950195l-24.367554 -10.9318695l-0.8828125 15.051804l-15.348572 -10.046875l-6.02063 13.539307l-9.161194 -9.097366l-9.152466 10.118057l-5.643982 -9.031006l-18.825195 14.050003l2.3310242 -16.498749l-20.82547 -5.9138947l14.510529 -9.703659l-17.822601 -15.830963l24.845154 -1.9122467l-13.666687 -19.244263l25.696655 2.4354553l-1.4892273 -21.391464l21.910065 17.911316l11.078247 -20.610672z" fill-rule="evenodd"></path><path stroke="#efefef" stroke-width="1.0" stroke-linejoin="round" stroke-linecap="butt" d="m552.65656 127.65095l23.924316 -17.481552l-6.7631836 27.861198l23.297974 -8.846054l-12.8029175 14.576263l31.332642 6.321472l-30.256653 8.334274l6.0491943 10.621735l-12.293518 2.881546l12.06488 18.950195l-24.367554 -10.9318695l-0.8828125 15.051804l-15.348572 -10.046875l-6.02063 13.539307l-9.161194 -9.097366l-9.152466 10.118057l-5.643982 -9.031006l-18.825195 14.050003l2.3310242 -16.498749l-20.82547 -5.9138947l14.510529 -9.703659l-17.822601 -15.830963l24.845154 -1.9122467l-13.666687 -19.244263l25.696655 2.4354553l-1.4892273 -21.391464l21.910065 17.911316l11.078247 -20.610672z" fill-rule="evenodd"></path><path fill="#000000" fill-opacity="0.0" d="m466.0248 161.87083l122.23624 -49.007874l12.755859 31.842514l-122.236206 49.007874z" fill-rule="evenodd"></path><path fill="#efefef" d="m526.75616 159.0897q0.12780762 0.31910706 0.11639404 0.6266937q-0.002746582 0.28727722 -0.10992432 0.5659332q-0.11303711 0.2641449 -0.30145264 0.5080414q-0.1942749 0.22938538 -0.44366455 0.4472046q-0.24066162 0.19750977 -0.5336304 0.3486328q-0.272583 0.1598053 -0.54815674 0.27027893q-0.6235962 0.25003052 -1.1689453 0.40133667q-0.5250244 0.1599884 -1.0646362 0.24165344l-0.38928223 -0.97180176q0.5802002 -0.06428528 1.137146 -0.18658447q0.5656738 -0.14260864 1.0877686 -0.35194397q0.7541504 -0.3023529 1.0354004 -0.6507721q0.28118896 -0.34843445 0.13012695 -0.7255554q-0.06970215 -0.17404175 -0.17419434 -0.26683044q-0.11029053 -0.10726929 -0.3163452 -0.15934753q-0.19732666 -0.072402954 -0.5628662 -0.060516357q-0.3713379 -0.0026245117 -0.98638916 0.058792114q-0.45837402 0.03225708 -0.86450195 0.026763916q-0.4119873 -0.019989014 -0.75439453 -0.118392944q-0.3336792 -0.11872864 -0.5891113 -0.33616638q-0.26123047 -0.2319336 -0.41815186 -0.6235657q-0.09875488 -0.24656677 -0.10473633 -0.59768677q-0.0060424805 -0.35110474 0.17944336 -0.7284851q0.18548584 -0.3773651 0.59436035 -0.7433014q0.4088745 -0.36593628 1.1339722 -0.656662q0.36260986 -0.14537048 0.8151245 -0.2762909q0.45251465 -0.13092041 0.95147705 -0.22996521l0.3776245 0.9427948q-0.5395508 0.08166504 -1.0123901 0.20388794q-0.458313 0.11642456 -0.7918701 0.25016785q-0.39160156 0.15698242 -0.6439209 0.32548523q-0.23779297 0.16267395 -0.36535645 0.34849548q-0.11883545 0.16548157 -0.13323975 0.3395996q-0.020202637 0.15962219 0.043701172 0.3191681q0.06970215 0.174057 0.17999268 0.2813263q0.124816895 0.10147095 0.35113525 0.16223145q0.22052002 0.04626465 0.5773926 0.05470276q0.35101318 -0.006072998 0.9022217 -0.05871582q0.61505127 -0.061416626 1.0473022 -0.032714844q0.432312 0.028686523 0.7515259 0.1532135q0.31341553 0.11003113 0.5253296 0.34490967q0.20605469 0.22038269 0.33972168 0.5539856zm2.6428223 -5.1670685l-1.7983398 0.7210083l-0.3486328 -0.8702698l2.8570557 -1.1454773l2.0800781 5.1925964l1.8128662 -0.72680664l0.3486328 0.8702698l-4.8584595 1.947876l-0.34857178 -0.8702698l1.9868774 -0.79660034l-1.7315063 -4.3223267zm-1.008667 -3.5684204q0.18847656 -0.07559204 0.36260986 -0.06121826q0.16827393 -1.2207031E-4 0.3307495 0.06939697q0.16253662 0.06951904 0.2786255 0.19129944q0.13061523 0.1159668 0.20617676 0.3045349q0.06390381 0.1595459 0.05529785 0.3481598q6.1035156E-5 0.16830444 -0.06945801 0.33085632q-0.06951904 0.16255188 -0.18548584 0.29322815q-0.12182617 0.11616516 -0.31036377 0.1917572q-0.17401123 0.06976318 -0.34228516 0.06990051q-0.17407227 -0.014373779 -0.3366089 -0.08389282q-0.16247559 -0.06951904 -0.29309082 -0.1855011q-0.12194824 -0.1362915 -0.18585205 -0.2958374q-0.07556152 -0.18855286 -0.07562256 -0.3568573q0.014404297 -0.17411804 0.08392334 -0.33666992q0.06958008 -0.16255188 0.19134521 -0.27871704q0.1159668 -0.13067627 0.29003906 -0.20043945zm6.3497925 4.0867767q-0.3137207 -0.7832489 -0.33441162 -1.4651489q-0.026489258 -0.6963959 0.18786621 -1.2537079q0.2230835 -0.57762146 0.69281006 -1.0016327q0.46398926 -0.43852234 1.1311035 -0.70599365q0.29003906 -0.11630249 0.58306885 -0.18325806q0.30163574 -0.08728027 0.59173584 -0.11943054l-1.022583 -2.5527802l1.0586548 -0.424469l3.4223633 8.543137l-0.942688 0.37794495l-0.4880371 -1.1342163q-0.19390869 0.8184509 -0.5795288 1.3265533q-0.38555908 0.5081024 -0.99468994 0.75231934q-0.50756836 0.20350647 -0.9949951 0.16325378q-0.47875977 -0.060577393 -0.8966675 -0.34753418q-0.4237671 -0.3014679 -0.7895508 -0.7944946q-0.35717773 -0.5133362 -0.6244507 -1.180542zm1.0586548 -0.5086212q0.44158936 1.1023407 0.975647 1.5110931q0.5340576 0.40873718 1.1286621 0.17034912q0.39160156 -0.15699768 0.7017212 -0.68536377q0.3043213 -0.54286194 0.5040283 -1.430954l-1.1271973 -2.8138733q-0.30755615 -0.011367798 -0.6498413 0.058532715q-0.33361816 0.049591064 -0.6381836 0.1716919q-0.85565186 0.34306335 -1.1134644 1.0861053q-0.2578125 0.74305725 0.21862793 1.9324188zm11.001343 -4.848419q0.0871582 0.21755981 0.13659668 0.3829193q0.05810547 0.14505005 0.09588623 0.2814026l-4.2493286 1.7036743q0.3718872 0.9282837 1.0828247 1.2324371q0.7196655 0.28382874 1.7058716 -0.111572266q0.26104736 -0.104660034 0.5162964 -0.22383118q0.26391602 -0.13948059 0.49884033 -0.26733398q0.22912598 -0.1423645 0.42919922 -0.2731018q0.21466064 -0.13653564 0.37994385 -0.2701416l0.3486328 0.8702698q-0.3741455 0.2846527 -0.8961792 0.578125q-0.50756836 0.2876587 -1.0876465 0.5202484q-0.76867676 0.3081665 -1.4155884 0.33187866q-0.652771 0.00920105 -1.1722412 -0.23706055q-0.52526855 -0.26075745 -0.93170166 -0.77116394q-0.39196777 -0.5162201 -0.68829346 -1.2559509q-0.25567627 -0.6381836 -0.30822754 -1.2736359q-0.043884277 -0.655777 0.12988281 -1.2304535q0.18823242 -0.5805054 0.59710693 -1.0305939q0.41748047 -0.47039795 1.0701294 -0.73205566q0.6235962 -0.25003052 1.1980591 -0.24465942q0.57440186 0.0053710938 1.0532227 0.23423767q0.47888184 0.22888184 0.86206055 0.6812744q0.3831787 0.45237732 0.6446533 1.1050873zm-1.1660767 0.28234863q-0.12792969 -0.40324402 -0.3630371 -0.69615173q-0.2409668 -0.30740356 -0.5369873 -0.45806885q-0.30181885 -0.16517639 -0.6586914 -0.17359924q-0.34814453 -0.028762817 -0.7542114 0.13404846q-0.33355713 0.13374329 -0.56555176 0.3950653q-0.23773193 0.24684143 -0.34197998 0.57481384q-0.11010742 0.31347656 -0.10119629 0.71391296q0.01763916 0.38012695 0.14550781 0.783371l3.1761475 -1.2733917z" fill-rule="nonzero"></path><path fill="#efefef" d="m522.1429 176.20776q0.0871582 0.21755981 0.13659668 0.3829193q0.05810547 0.14505005 0.09588623 0.2814026l-4.2493286 1.7036743q0.3718872 0.9282837 1.0828247 1.2324371q0.7196655 0.28382874 1.7058716 -0.111572266q0.26104736 -0.104660034 0.5162964 -0.22381592q0.26391602 -0.13949585 0.49884033 -0.26734924q0.22912598 -0.1423645 0.42919922 -0.2731018q0.21466064 -0.13653564 0.37994385 -0.2701416l0.3486328 0.8702698q-0.3741455 0.2846527 -0.8961792 0.578125q-0.50756836 0.2876587 -1.0876465 0.5202484q-0.76867676 0.3081665 -1.4155884 0.33187866q-0.652771 0.00920105 -1.1722412 -0.23706055q-0.52526855 -0.26075745 -0.93170166 -0.77116394q-0.39196777 -0.5162201 -0.68829346 -1.2559509q-0.25567627 -0.6381836 -0.30822754 -1.2736359q-0.043884277 -0.655777 0.12988281 -1.2304535q0.18823242 -0.5805054 0.5970459 -1.0305939q0.4175415 -0.47039795 1.0701904 -0.73205566q0.6235962 -0.25003052 1.1980591 -0.24465942q0.57440186 0.0053710938 1.0532227 0.23423767q0.4788208 0.22888184 0.86206055 0.6812744q0.3831787 0.45237732 0.6446533 1.1050873zm-1.1661377 0.28234863q-0.12786865 -0.40324402 -0.3630371 -0.69615173q-0.2409668 -0.30740356 -0.53692627 -0.45806885q-0.30181885 -0.16517639 -0.6586914 -0.17359924q-0.34814453 -0.028762817 -0.7542114 0.13404846q-0.33361816 0.13374329 -0.56555176 0.3950653q-0.23773193 0.24684143 -0.34204102 0.57481384q-0.11004639 0.31347656 -0.101135254 0.71391296q0.01763916 0.38012695 0.14550781 0.783371l3.1760864 -1.2733917zm6.543762 -7.3202515q-0.8963623 0.15737915 -1.5054932 0.4015808q-1.4067993 0.5640259 -0.81414795 2.0434723l0.42999268 1.0733337l2.6539917 -1.0640717l0.3486328 0.8702698l-2.6539917 1.0640717l1.725708 4.307831l-1.0732422 0.4302826l-1.725647 -4.307831l-1.9578857 0.7849579l-0.3486328 -0.8702545l1.9578857 -0.78497314l-0.40673828 -1.0153198q-0.9703369 -2.4222412 1.5531616 -3.4339752q0.6235962 -0.25003052 1.4503784 -0.41316223l0.36602783 0.91378784zm-5.753784 4.040741l0 0zm12.555359 -6.767685q-0.8963623 0.15737915 -1.5054932 0.40159607q-1.4067993 0.5640106 -0.81414795 2.0434723l0.42999268 1.0733337l2.6539917 -1.0640717l0.3486328 0.8702698l-2.6539917 1.0640564l1.725708 4.307831l-1.0732422 0.4302826l-1.725647 -4.307831l-1.9578857 0.78497314l-0.3486328 -0.8702698l1.9578857 -0.78497314l-0.40673828 -1.0153046q-0.9703369 -2.4222565 1.5531616 -3.4339905q0.6235962 -0.25003052 1.4503784 -0.41314697l0.36602783 0.9137726zm-5.753784 4.040741l0 0zm13.979309 -2.4567108q0.0871582 0.21755981 0.13659668 0.3829193q0.05810547 0.14505005 0.09588623 0.2814026l-4.2493286 1.7036743q0.3718872 0.9282837 1.0828247 1.2324371q0.7196655 0.28382874 1.7058716 -0.111572266q0.26104736 -0.104660034 0.5162964 -0.22383118q0.26391602 -0.13948059 0.49884033 -0.26733398q0.22912598 -0.1423645 0.42919922 -0.2731018q0.21466064 -0.13653564 0.37994385 -0.2701416l0.3486328 0.8702698q-0.3741455 0.2846527 -0.8961792 0.578125q-0.50756836 0.2876587 -1.0876465 0.5202484q-0.76867676 0.3081665 -1.4155884 0.33187866q-0.652771 0.00920105 -1.1722412 -0.23706055q-0.52526855 -0.26075745 -0.93170166 -0.77116394q-0.39196777 -0.5162201 -0.68829346 -1.2559509q-0.25567627 -0.6381836 -0.30822754 -1.2736359q-0.043884277 -0.655777 0.12988281 -1.2304535q0.18823242 -0.5805054 0.5970459 -1.0305939q0.4175415 -0.47039795 1.0701904 -0.73205566q0.6235962 -0.25003052 1.1980591 -0.24465942q0.57440186 0.0053710938 1.0532227 0.23423767q0.4788208 0.22888184 0.86206055 0.6812744q0.3831787 0.45237732 0.6446533 1.1050873zm-1.1661377 0.28234863q-0.12786865 -0.40324402 -0.36297607 -0.69615173q-0.24102783 -0.30740356 -0.5369873 -0.45806885q-0.30181885 -0.16517639 -0.6586914 -0.17359924q-0.34814453 -0.028762817 -0.7542114 0.13404846q-0.33355713 0.13372803 -0.56555176 0.3950653q-0.23773193 0.24684143 -0.34197998 0.57481384q-0.11010742 0.31347656 -0.10119629 0.71391296q0.01763916 0.38012695 0.14550781 0.783371l3.1760864 -1.2733917zm8.816711 0.28648376q-0.3624878 0.31365967 -0.76849365 0.56062317q-0.3857422 0.25564575 -0.8498535 0.44171143q-1.435791 0.5756531 -2.5326538 0.106399536q-1.0824585 -0.47506714 -1.6809082 -1.9690399q-0.284729 -0.7107086 -0.29956055 -1.3781128q-0.006225586 -0.6877136 0.21685791 -1.2653351q0.23760986 -0.5834503 0.71606445 -1.0277863q0.47265625 -0.4588318 1.1542358 -0.7321167q0.46411133 -0.18606567 0.89923096 -0.27635193q0.44384766 -0.11061096 0.88482666 -0.10223389l0.40093994 1.0008087q-0.48742676 -0.040252686 -0.92840576 0.03552246q-0.4467163 0.061279297 -0.88183594 0.23571777q-0.4060669 0.16281128 -0.7047119 0.46772766q-0.28997803 0.28459167 -0.44934082 0.68515015q-0.15930176 0.40057373 -0.15032959 0.88516235q0.01763916 0.46426392 0.23260498 1.0009308q0.43579102 1.0878448 1.1787109 1.4296875q0.75738525 0.33602905 1.7145996 -0.047729492q0.42053223 -0.16862488 0.7859497 -0.43296814q0.36541748 -0.26434326 0.66693115 -0.6040802l0.3951416 0.98631287zm7.027893 -2.6661682q-0.32769775 0.23239136 -0.6873779 0.42707825q-0.35961914 0.19468689 -0.76568604 0.35749817q-1.1312256 0.453537 -1.9002075 0.1726532q-0.7747803 -0.2953949 -1.204773 -1.3687286l-1.2666626 -3.161972l-1.6967773 0.68029785l-0.3544922 -0.8847656l1.6968384 -0.6803131l-0.66815186 -1.6680145l0.9483032 -0.7000427l0.77856445 1.9436035l2.7265625 -1.0931396l0.35443115 0.8847656l-2.7265625 1.0931396l1.2318115 3.0749512q0.2614746 0.6526947 0.74316406 0.846756q0.4758911 0.17955017 1.1430664 -0.08792114q0.29003906 -0.11628723 0.6206665 -0.29936218q0.3248291 -0.19755554 0.6670532 -0.43577576l0.3602295 0.899292zm6.087036 -4.258545q0.12780762 0.31910706 0.11639404 0.6266937q-0.002746582 0.28727722 -0.10992432 0.5659332q-0.11303711 0.2641449 -0.30145264 0.5080414q-0.1942749 0.22938538 -0.44366455 0.4472046q-0.24066162 0.19750977 -0.5336304 0.3486328q-0.272583 0.1598053 -0.54815674 0.27027893q-0.6235962 0.25001526 -1.1689453 0.40133667q-0.5250244 0.1599884 -1.0646362 0.24165344l-0.38928223 -0.97180176q0.5802002 -0.06428528 1.137146 -0.18658447q0.5656738 -0.14260864 1.0877686 -0.35194397q0.7541504 -0.3023529 1.0354004 -0.6507721q0.28118896 -0.34843445 0.13012695 -0.7255554q-0.06970215 -0.17404175 -0.17419434 -0.26683044q-0.11035156 -0.107284546 -0.3163452 -0.15934753q-0.19732666 -0.072402954 -0.5628662 -0.060516357q-0.3713379 -0.0026245117 -0.98638916 0.058792114q-0.45837402 0.03225708 -0.86450195 0.026763916q-0.4119873 -0.019989014 -0.75439453 -0.118392944q-0.33374023 -0.11872864 -0.5891113 -0.33616638q-0.26123047 -0.2319336 -0.41815186 -0.6235657q-0.09875488 -0.24656677 -0.10473633 -0.59768677q-0.0060424805 -0.35110474 0.17944336 -0.7284851q0.18548584 -0.3773651 0.59436035 -0.7433014q0.4088745 -0.36593628 1.1339722 -0.656662q0.36260986 -0.14537048 0.8151245 -0.2762909q0.45251465 -0.13092041 0.951416 -0.22996521l0.37768555 0.9427948q-0.5395508 0.08166504 -1.0123901 0.20388794q-0.458313 0.11642456 -0.7918701 0.25016785q-0.39160156 0.15698242 -0.6439209 0.32548523q-0.23779297 0.16267395 -0.36535645 0.34848022q-0.11883545 0.16549683 -0.13323975 0.33961487q-0.020263672 0.15962219 0.043701172 0.3191681q0.06970215 0.174057 0.17999268 0.2813263q0.124816895 0.10147095 0.35113525 0.16223145q0.22052002 0.04626465 0.5773926 0.05470276q0.35101318 -0.006072998 0.9022217 -0.05871582q0.61505127 -0.061416626 1.0473022 -0.032714844q0.432312 0.028686523 0.7515259 0.1532135q0.3133545 0.11003113 0.5253296 0.34490967q0.20605469 0.22038269 0.33972168 0.5539856z" fill-rule="nonzero"></path></g></svg>

